<?xml version="1.0" encoding="UTF-8"?>
<svg width="1077px" height="346px" viewBox="0 0 1077 346" version="1.1" xmlns="http://www.w3.org/2000/svg" xmlns:xlink="http://www.w3.org/1999/xlink">
    <title>Artboard</title>
    <g id="Artboard" stroke="none" stroke-width="1" fill="none" fill-rule="evenodd">
        <rect fill="#FFFFFF" x="0" y="0" width="1077" height="346"></rect>
        <g id="dog" transform="translate(66.616984, 56.479344)" fill="#18181B" fill-rule="nonzero">
            <path d="M101.837088,231.57465 C100.485269,231.122052 99.1334489,230.669455 98.6828423,230.669455 C96.8804159,230.669455 93.7261698,229.76426 91.9237435,229.311662 C90.5719237,228.859064 89.6707106,227.048674 89.6707106,225.690881 C89.6707106,223.880491 88.7694974,223.427894 85.1646447,222.975296 C81.1091854,222.070101 79.7573657,220.712308 79.7573657,217.996723 C79.7573657,214.82854 78.8561525,214.375942 71.1958406,213.018149 C66.6897747,212.112954 64.8873484,211.660357 64.8873484,210.755162 C64.8873484,209.849966 66.2391681,209.849966 72.0970537,211.207759 C79.7573657,213.018149 81.1091854,213.018149 81.1091854,212.565552 C81.1091854,212.112954 78.8561525,211.207759 76.6031196,210.302564 C70.2946274,208.492174 68.0415945,208.039576 62.6343154,208.039576 C57.677643,207.586979 56.7764298,207.134381 56.7764298,206.229186 C57.2270364,205.323991 59.4800693,204.871393 61.2824957,205.776588 C62.1837088,206.229186 63.084922,206.229186 63.5355286,205.776588 C63.9861352,205.323991 63.9861352,205.323991 62.6343154,205.323991 C60.8318891,205.323991 59.9306759,204.418796 60.8318891,203.5136 C61.2824957,203.061003 66.2391681,203.5136 70.2946274,204.418796 C72.0970537,204.871393 74.8006932,205.323991 76.152513,205.323991 C79.3067591,205.323991 83.3622184,206.229186 83.812825,206.681783 C84.2634315,207.586979 82.4610052,208.039576 80.2079723,207.586979 C75.7019064,206.681783 73.4488735,206.681783 73.4488735,207.134381 C73.4488735,207.586979 74.3500867,208.039576 75.2512998,208.039576 C75.7019064,208.039576 77.9549393,208.944771 79.7573657,209.397369 C82.9116118,210.302564 84.2634315,209.849966 84.2634315,208.492174 C84.2634315,208.492174 84.7140381,208.039576 85.1646447,208.039576 C85.1646447,208.039576 86.5164645,207.586979 86.9670711,207.134381 C88.7694974,206.681783 91.9237435,205.776588 95.5285962,205.323991 C96.8804159,204.871393 97.7816291,204.418796 98.2322357,204.418796 C98.6828423,203.5136 95.0779896,202.608405 92.3743501,202.608405 C91.0225303,202.608405 86.9670711,202.608405 83.3622184,202.155808 L76.6031196,202.155808 L75.7019064,200.798015 C75.2512998,199.89282 74.8006932,198.535027 74.3500867,197.177234 C73.8994801,195.819442 73.4488735,194.914247 72.9982669,194.914247 C72.5476603,194.461649 70.745234,194.009051 63.084922,192.198661 C59.4800693,191.746064 59.0294627,191.293466 59.9306759,190.840868 C60.3812825,190.388271 62.1837088,190.840868 67.1403813,191.746064 C70.2946274,192.198661 71.6464471,192.198661 71.6464471,191.293466 C71.6464471,191.293466 71.1958406,190.388271 70.2946274,190.388271 C69.8440208,189.935673 68.0415945,188.577881 66.6897747,187.220088 C65.3379549,185.862295 63.9861352,184.504502 63.5355286,184.504502 C62.6343154,184.504502 62.1837088,183.599307 62.6343154,183.14671 C62.6343154,182.694112 63.084922,182.694112 63.9861352,182.694112 C64.4367418,182.694112 66.6897747,182.241515 68.492201,182.241515 C72.0970537,181.336319 74.8006932,181.336319 75.7019064,181.788917 C75.7019064,182.241515 76.152513,182.241515 76.152513,181.788917 C76.6031196,181.336319 81.1091854,181.336319 82.0103986,181.788917 C82.9116118,182.241515 82.0103986,182.694112 78.8561525,182.694112 L76.6031196,183.14671 L77.9549393,183.599307 C78.8561525,184.051905 80.2079723,184.504502 81.559792,184.504502 C85.1646447,184.9571 88.7694974,184.504502 88.7694974,184.051905 C88.7694974,183.599307 88.3188908,183.599307 87.8682842,183.599307 C86.9670711,183.599307 86.5164645,183.599307 86.0658579,183.14671 C86.0658579,182.694112 85.6152513,182.694112 85.1646447,182.694112 C84.7140381,182.694112 84.7140381,182.694112 84.2634315,182.241515 C84.2634315,181.788917 85.1646447,181.788917 88.7694974,182.694112 C89.6707106,182.694112 90.1213172,182.694112 90.1213172,182.241515 C90.1213172,181.788917 88.3188908,180.883722 85.6152513,180.431124 C84.7140381,180.431124 82.9116118,179.978527 82.0103986,179.525929 C80.6585789,179.073332 77.0537262,179.073332 71.6464471,178.620734 C66.6897747,178.620734 62.6343154,178.620734 62.6343154,178.168136 C62.6343154,178.168136 62.6343154,177.715539 63.084922,177.715539 C63.5355286,177.262941 65.7885615,177.262941 69.3934142,177.715539 C72.0970537,177.715539 75.7019064,177.715539 77.5043328,178.168136 C79.3067591,178.168136 81.1091854,178.168136 81.559792,178.620734 C83.3622184,179.073332 83.3622184,179.073332 83.3622184,178.620734 C83.3622184,177.715539 82.4610052,177.262941 81.1091854,177.262941 C79.3067591,177.262941 79.3067591,176.810344 80.2079723,175.905149 C80.6585789,175.452551 80.6585789,175.452551 79.7573657,174.547356 C78.8561525,173.189563 75.7019064,172.284368 70.745234,170.926575 C66.6897747,169.568783 58.5788562,169.116185 53.6221837,169.116185 C45.9618718,170.02138 46.4124783,170.02138 45.9618718,168.663587 C45.9618718,167.305795 47.3136915,166.853197 56.7764298,167.305795 C63.9861352,167.305795 65.7885615,167.305795 69.3934142,168.21099 C72.0970537,169.116185 74.3500867,169.568783 74.3500867,169.116185 C74.8006932,168.663587 70.2946274,165.948002 65.3379549,164.137612 C62.1837088,162.779819 42.3570191,163.685014 37.4003466,165.495404 C36.0485269,165.948002 33.7954939,166.4006 32.8942808,166.853197 C31.542461,166.853197 29.2894281,167.305795 27.9376083,167.758392 C25.6845754,168.21099 24.7833622,168.21099 22.0797227,167.305795 C20.2772964,166.853197 18.47487,165.948002 18.47487,165.948002 C18.0242634,165.948002 17.1230503,165.495404 16.2218371,165.042807 C13.9688042,164.590209 13.9688042,163.685014 16.2218371,163.232417 C17.5736568,162.779819 18.47487,162.779819 19.3760832,163.232417 C20.7279029,164.137612 21.1785095,164.137612 21.6291161,163.685014 C22.5303293,163.232417 29.2894281,160.969429 34.2461005,160.064234 C39.6533795,159.159038 51.8197574,159.159038 53.1715771,160.064234 C53.6221837,160.516831 56.3258232,160.969429 59.0294627,161.422026 C63.9861352,161.874624 67.5909879,163.232417 71.1958406,164.590209 C74.8006932,166.4006 77.5043328,169.116185 78.4055459,170.473978 C78.8561525,171.83177 79.7573657,172.284368 82.4610052,173.189563 C84.2634315,174.094758 86.9670711,174.999953 87.8682842,175.452551 C90.1213172,176.810344 94.1767764,177.715539 96.8804159,177.715539 C98.2322357,177.715539 100.034662,177.715539 100.034662,178.168136 C101.386482,178.168136 100.935875,179.525929 100.034662,179.525929 C99.5840555,179.978527 99.1334489,179.978527 99.1334489,180.431124 C99.5840555,181.336319 101.386482,181.788917 103.639515,181.788917 C105.441941,181.788917 105.441941,181.788917 105.441941,179.978527 C105.892548,179.073332 105.892548,177.262941 106.343154,176.357746 C106.793761,174.999953 106.793761,171.83177 107.244367,168.663587 C107.694974,164.137612 107.694974,163.685014 106.793761,162.779819 C105.892548,161.422026 101.837088,160.064234 100.034662,160.064234 C98.2322357,160.064234 96.4298094,159.159038 96.8804159,158.253843 C97.3310225,158.253843 98.2322357,158.253843 99.5840555,158.253843 C100.485269,158.253843 101.837088,157.801246 101.837088,157.801246 C101.837088,157.348648 100.935875,156.443453 99.5840555,155.990855 C96.8804159,154.180465 92.8249567,150.559685 92.8249567,149.654489 C92.8249567,149.201892 93.2755633,149.201892 97.3310225,152.370075 C102.738302,156.443453 104.540728,157.348648 106.343154,157.348648 C107.244367,157.348648 108.145581,157.348648 108.145581,156.896051 C108.145581,154.180465 111.299827,132.908379 111.750433,130.645391 C112.20104,129.740196 112.20104,125.666818 112.20104,122.498635 C112.651646,117.520062 112.651646,115.257074 113.55286,113.899281 C114.454073,111.183696 115.805893,109.373305 116.707106,109.373305 C117.608319,109.373305 118.509532,108.46811 118.509532,107.562915 C118.960139,105.752525 120.311958,105.752525 120.762565,107.110318 C120.762565,108.015513 121.213172,108.46811 121.663778,108.46811 C121.663778,108.46811 122.114385,108.920708 122.564991,109.373305 C122.564991,109.825903 124.818024,109.825903 126.169844,109.373305 C127.521664,108.920708 127.521664,108.920708 128.422877,110.278501 C128.422877,111.183696 129.32409,111.636293 129.32409,111.183696 C129.774697,111.183696 130.67591,111.636293 131.577123,112.541488 C132.478336,113.899281 133.379549,114.351879 133.830156,114.351879 C134.731369,113.899281 136.984402,111.183696 136.984402,110.278501 C136.984402,109.825903 137.435009,109.825903 138.336222,109.825903 C139.688042,109.825903 139.688042,109.825903 140.138648,108.015513 C141.039861,105.752525 143.292894,102.584342 144.644714,102.584342 C144.644714,102.584342 145.095321,103.036939 145.545927,103.489537 C145.545927,103.489537 145.996534,103.942135 145.996534,103.942135 C146.897747,103.942135 146.44714,101.226549 145.545927,99.8687565 C144.644714,98.5109638 145.095321,97.6057686 145.996534,98.5109638 C147.79896,99.8687565 148.700173,97.153171 147.79896,94.4375856 C146.897747,92.1745977 146.897747,91.2694026 148.249567,90.816805 C148.249567,90.3642075 148.700173,89.9116099 148.700173,89.4590123 C148.700173,88.1012196 149.601386,86.7434269 150.5026,86.7434269 C150.953206,86.7434269 150.953206,87.1960245 150.953206,89.0064147 C150.953206,91.7220002 151.854419,94.4375856 151.854419,92.1745977 C151.854419,89.9116099 153.206239,86.2908293 153.656846,86.2908293 C154.558059,86.2908293 155.008666,87.1960245 154.107452,88.1012196 C153.656846,88.5538172 152.755633,93.984988 152.755633,96.7005735 C152.755633,98.9635613 151.854419,101.679147 149.15078,109.825903 C145.095321,121.59344 144.194107,122.951233 143.743501,124.761623 C143.292894,125.21422 142.391681,128.382404 141.941075,131.097989 C141.039861,133.813574 140.138648,136.981757 140.138648,137.886953 C139.688042,138.33955 139.237435,141.055136 138.786828,143.318123 C138.336222,145.581111 137.885615,148.749294 136.984402,150.107087 C136.533795,151.46488 136.083189,153.27527 136.083189,154.633063 C136.083189,155.538258 135.632582,156.896051 135.632582,157.348648 C135.181976,158.253843 133.830156,161.422026 132.478336,165.495404 C131.577123,169.116185 129.774697,173.189563 129.32409,174.547356 C128.873484,175.905149 127.97227,178.168136 127.97227,179.525929 C127.521664,180.883722 126.620451,183.599307 126.169844,185.409698 C124.818024,188.577881 124.818024,188.577881 123.015598,192.198661 C122.564991,193.556454 122.114385,194.914247 122.114385,194.914247 C122.114385,195.366844 120.762565,198.535027 118.960139,202.155808 C115.805893,208.039576 114.904679,209.849966 112.651646,212.112954 C109.4974,215.281137 108.145581,215.733735 103.188908,215.733735 C100.034662,215.733735 98.2322357,216.186332 95.5285962,218.44932 C94.1767764,219.354515 92.3743501,222.522698 92.3743501,223.880491 C92.8249567,224.785686 94.1767764,224.333089 95.0779896,222.975296 C96.4298094,221.617503 99.5840555,219.354515 100.935875,219.354515 C102.287695,219.354515 102.287695,220.259711 100.034662,221.164906 C98.2322357,222.070101 97.3310225,222.975296 96.4298094,225.238284 C95.9792028,226.143479 95.9792028,226.596077 96.4298094,227.048674 C97.3310225,227.953869 97.7816291,227.501272 99.5840555,226.143479 C100.935875,224.333089 104.090121,223.427894 104.991334,223.880491 C105.892548,224.333089 105.441941,225.238284 104.090121,225.690881 C102.738302,226.143479 102.738302,226.596077 102.738302,227.501272 C102.738302,228.406467 102.738302,228.406467 104.991334,228.406467 C106.793761,228.406467 108.145581,227.953869 109.046794,227.953869 C109.4974,227.501272 110.84922,227.501272 111.750433,227.501272 C113.102253,227.501272 114.003466,227.048674 114.904679,226.596077 C114.904679,226.143479 115.805893,225.690881 116.256499,225.690881 C117.157712,225.690881 120.311958,221.617503 120.311958,220.259711 C120.311958,218.901918 121.663778,216.186332 123.916811,213.470747 C125.268631,212.112954 126.169844,210.302564 126.169844,209.397369 C126.620451,208.039576 127.071057,207.134381 127.97227,206.681783 C128.873484,206.229186 129.32409,205.323991 129.32409,204.418796 C129.32409,202.608405 131.126516,199.440222 132.478336,198.987625 C133.379549,198.987625 133.379549,198.535027 133.379549,197.177234 C133.379549,195.819442 133.830156,194.914247 133.830156,194.009051 C134.280763,193.556454 134.731369,192.651259 135.181976,191.293466 C135.632582,189.030478 136.083189,189.030478 137.435009,190.840868 C137.885615,192.198661 138.336222,192.651259 140.138648,191.293466 C141.941075,190.840868 142.391681,189.483076 142.391681,186.76749 C142.391681,185.409698 141.941075,184.9571 141.039861,184.051905 C139.688042,183.14671 139.237435,181.788917 140.589255,180.883722 C141.039861,180.431124 141.490468,179.978527 141.490468,179.525929 C141.490468,178.168136 142.391681,176.810344 143.292894,176.810344 C144.194107,176.810344 147.348354,179.525929 147.348354,180.431124 C147.79896,181.788917 150.5026,183.599307 151.403813,183.599307 C152.305026,183.599307 154.107452,180.431124 155.008666,178.620734 C155.008666,177.715539 155.008666,177.715539 153.656846,177.715539 C153.206239,177.715539 151.854419,177.715539 151.854419,177.262941 C150.953206,177.262941 150.5026,175.452551 151.403813,175.452551 C151.854419,175.452551 152.755633,174.999953 153.206239,174.547356 C155.459272,172.736966 155.008666,171.379173 151.854419,169.568783 C149.15078,168.21099 147.79896,166.853197 147.79896,165.495404 C147.79896,164.590209 149.15078,165.042807 151.403813,166.853197 C152.755633,167.305795 155.008666,168.663587 156.360485,168.663587 C158.162912,169.116185 158.613518,169.568783 158.613518,170.473978 C158.613518,171.379173 159.064125,171.83177 159.514731,172.284368 C160.866551,172.736966 160.866551,174.094758 159.514731,174.547356 C159.064125,174.547356 158.613518,174.999953 158.613518,177.715539 C158.162912,179.073332 158.162912,181.788917 158.162912,182.694112 C158.162912,184.051905 157.712305,185.862295 157.712305,186.76749 C157.261698,188.125283 157.261698,188.577881 158.162912,189.935673 C158.613518,190.840868 159.064125,192.198661 159.064125,192.651259 C159.064125,193.103856 159.514731,193.556454 159.965338,194.009051 C160.415945,194.461649 161.317158,196.272039 161.767764,198.08243 C162.218371,199.440222 163.119584,201.70321 163.570191,202.155808 C164.020797,202.608405 164.471404,203.966198 164.92201,204.871393 C165.372617,205.776588 166.724437,207.134381 167.62565,208.039576 C170.329289,209.849966 170.779896,210.302564 170.779896,211.660357 C170.779896,213.470747 170.329289,213.470747 168.076256,212.565552 C165.823224,211.660357 164.471404,211.207759 164.020797,212.112954 C163.570191,213.470747 162.668977,213.470747 160.866551,211.660357 C158.162912,209.397369 154.107452,206.681783 152.305026,206.229186 C151.403813,206.229186 150.051993,205.323991 149.15078,204.418796 C146.44714,201.70321 144.644714,201.70321 135.632582,203.5136 C135.181976,203.966198 134.280763,204.418796 133.830156,204.871393 C133.379549,205.323991 132.02773,206.681783 130.67591,207.586979 C127.071057,210.302564 129.32409,213.018149 134.731369,213.018149 C136.083189,213.018149 137.435009,213.018149 137.885615,213.470747 C137.885615,213.923345 138.786828,213.923345 140.138648,213.923345 C141.039861,213.923345 143.292894,214.375942 144.644714,214.82854 C145.996534,214.82854 147.79896,215.281137 148.249567,215.281137 C149.15078,215.281137 150.051993,215.733735 150.5026,216.63893 C151.403813,217.544125 152.305026,217.996723 153.206239,218.44932 C154.558059,218.901918 156.811092,219.807113 159.064125,220.712308 C164.92201,223.427894 173.934142,226.143479 176.187175,226.143479 C179.792028,226.143479 181.594454,224.333089 180.242634,222.070101 C178.890815,219.807113 179.341421,218.901918 182.045061,217.544125 C183.847487,216.63893 186.10052,215.733735 187.45234,215.281137 C188.804159,214.82854 191.057192,213.923345 192.859619,213.018149 C194.662045,212.565552 196.013865,211.660357 196.013865,212.112954 C196.464471,212.112954 196.464471,213.018149 196.013865,213.923345 C196.013865,215.733735 196.464471,215.733735 199.168111,214.375942 C200.519931,213.470747 201.421144,212.565552 201.87175,211.207759 C202.772964,209.849966 203.674177,208.492174 204.57539,207.586979 C205.476603,206.229186 205.92721,205.323991 205.92721,203.966198 C206.377816,203.061003 206.828423,200.798015 208.180243,198.987625 C209.982669,194.914247 210.433276,192.198661 208.630849,195.366844 C208.180243,196.272039 207.279029,197.177234 206.828423,197.177234 C205.92721,197.177234 206.377816,195.819442 207.279029,194.914247 C208.180243,194.009051 210.883882,189.030478 211.785095,187.672685 C211.785095,187.220088 212.686308,185.409698 213.136915,183.599307 C214.038128,182.241515 214.488735,180.883722 214.488735,180.431124 C214.488735,180.431124 214.939341,179.525929 215.840555,178.620734 C216.291161,177.715539 217.192374,175.905149 218.093588,174.999953 C218.994801,172.736966 218.994801,172.736966 218.093588,171.83177 C217.642981,170.926575 217.642981,170.473978 218.093588,168.21099 C218.093588,166.853197 218.093588,165.042807 218.544194,164.137612 C218.544194,162.779819 218.544194,161.874624 218.544194,161.422026 C218.544194,160.969429 218.994801,160.516831 219.445407,160.064234 C220.34662,160.064234 220.797227,159.611636 220.797227,155.990855 C220.797227,154.180465 220.797227,152.370075 220.34662,152.370075 C220.34662,152.370075 219.896014,152.822672 219.445407,153.27527 C218.994801,153.727868 218.994801,153.727868 218.544194,153.27527 C218.093588,152.822672 218.093588,151.917477 218.093588,151.012282 C218.093588,150.107087 217.642981,148.749294 217.642981,147.844099 C216.291161,145.128514 216.741768,143.318123 217.642981,143.318123 C218.093588,143.318123 218.544194,143.770721 218.544194,144.223319 C218.544194,144.223319 218.544194,144.675916 218.994801,144.675916 C219.445407,144.223319 218.994801,143.318123 218.544194,141.960331 C218.093588,139.244745 218.093588,133.813574 219.445407,133.813574 C219.445407,133.813574 219.896014,134.266172 220.34662,134.71877 C220.34662,135.171367 220.797227,136.52916 221.247834,137.434355 C222.599653,140.14994 223.500867,144.223319 223.500867,146.486306 C223.05026,147.391502 223.05026,150.107087 223.05026,151.917477 C223.05026,154.180465 222.599653,157.348648 222.599653,158.706441 C222.149047,160.969429 222.149047,161.422026 223.05026,162.327221 C223.500867,163.232417 223.951473,164.137612 223.951473,170.473978 C223.951473,174.094758 223.500867,177.262941 223.500867,177.262941 C223.05026,177.262941 223.05026,176.810344 223.05026,176.810344 C223.05026,175.905149 221.69844,175.905149 221.69844,176.810344 C221.247834,176.810344 221.247834,178.620734 221.247834,179.525929 C221.247834,183.599307 220.797227,184.9571 219.445407,185.409698 C218.994801,185.862295 218.544194,186.314893 218.544194,187.220088 C218.544194,188.577881 215.389948,194.914247 214.488735,195.366844 C213.587522,195.819442 213.587522,194.009051 214.488735,192.198661 C215.840555,190.840868 216.291161,187.672685 215.389948,187.672685 C215.389948,187.672685 214.939341,188.577881 214.488735,189.935673 C214.038128,190.840868 213.587522,192.651259 213.136915,194.009051 C212.235702,195.366844 212.235702,196.272039 212.686308,196.272039 C213.587522,197.629832 212.686308,199.89282 208.630849,206.681783 C208.630849,207.134381 207.729636,208.492174 207.279029,209.397369 C206.377816,210.755162 205.476603,211.660357 205.476603,211.660357 C205.476603,211.660357 204.57539,212.565552 204.124783,213.923345 C203.22357,216.186332 200.519931,218.901918 200.069324,218.44932 C199.618718,218.44932 199.618718,217.996723 200.069324,217.544125 C200.519931,217.091528 200.519931,216.63893 200.519931,216.186332 C200.519931,215.281137 197.365685,217.544125 196.464471,218.901918 C195.563258,219.354515 195.112652,219.807113 193.760832,219.807113 C192.409012,219.807113 191.057192,220.259711 189.705373,220.712308 C188.804159,221.164906 187.001733,221.617503 185.649913,221.617503 C184.298094,221.617503 183.39688,221.617503 183.39688,222.070101 C183.39688,222.522698 182.946274,222.522698 187.902946,222.975296 C191.507799,222.975296 191.958406,222.975296 193.310225,222.070101 C196.013865,219.354515 199.618718,219.354515 198.266898,221.617503 C197.816291,222.522698 192.859619,224.333089 188.804159,224.785686 C187.45234,225.238284 186.551127,225.690881 185.649913,226.143479 C184.7487,227.048674 180.693241,228.406467 177.088388,228.859064 C175.736568,228.859064 174.835355,229.311662 174.384749,229.76426 C173.483536,230.669455 172.582322,230.216857 172.582322,229.311662 C172.582322,228.859064 172.131716,228.406467 170.329289,228.406467 C169.428076,227.953869 167.62565,227.501272 166.724437,227.048674 C165.823224,226.596077 164.471404,226.143479 163.570191,226.143479 C160.866551,225.690881 154.107452,222.975296 153.206239,222.522698 C151.854419,221.164906 148.700173,219.807113 146.897747,219.354515 C145.996534,219.354515 144.644714,219.354515 143.292894,219.807113 C141.941075,220.259711 140.589255,220.259711 137.885615,219.807113 C135.632582,219.354515 133.830156,219.354515 133.830156,219.354515 C133.830156,219.807113 133.830156,220.259711 134.280763,221.164906 C134.280763,222.070101 134.731369,222.975296 134.280763,222.975296 C134.280763,222.975296 132.928943,222.975296 131.126516,222.522698 C124.818024,221.617503 123.916811,221.617503 123.916811,222.070101 C123.916811,222.522698 125.719237,222.975296 129.774697,223.880491 C131.577123,224.333089 137.885615,226.143479 142.391681,227.501272 C143.743501,227.501272 143.292894,228.859064 142.391681,228.859064 C141.941075,228.859064 139.237435,228.406467 136.984402,227.501272 C132.02773,226.143479 129.774697,225.690881 130.225303,227.048674 C130.225303,227.953869 129.774697,227.501272 128.873484,226.596077 C128.873484,225.690881 127.97227,225.238284 125.719237,225.238284 C123.466205,224.785686 122.564991,224.785686 122.114385,225.238284 C121.213172,226.143479 122.114385,227.048674 123.466205,227.048674 C124.367418,227.501272 126.169844,227.953869 127.521664,227.953869 C128.422877,228.406467 130.67591,229.311662 132.02773,229.311662 C133.830156,229.76426 134.731369,230.669455 134.731369,231.122052 C134.731369,232.027247 131.126516,231.57465 127.97227,230.216857 C126.169844,229.76426 122.564991,228.859064 121.213172,228.859064 C120.762565,228.859064 119.861352,229.311662 119.410745,229.311662 C118.960139,230.216857 117.157712,230.669455 113.102253,230.669455 C110.398614,231.122052 107.244367,231.57465 106.793761,232.027247 C105.441941,232.932443 103.639515,232.479845 101.837088,231.57465 Z M95.9792028,215.281137 C97.3310225,214.375942 101.386482,213.470747 104.090121,213.470747 C108.145581,213.923345 109.4974,212.112954 109.4974,207.134381 C109.4974,204.871393 109.4974,204.418796 110.84922,203.061003 C112.20104,201.70321 113.102253,198.535027 113.102253,196.272039 C113.102253,195.819442 113.55286,194.009051 114.003466,192.651259 C114.454073,191.746064 115.355286,189.483076 115.805893,187.672685 C117.608319,182.694112 118.509532,180.883722 119.861352,178.620734 C121.663778,175.905149 122.114385,174.999953 121.663778,174.547356 C121.213172,173.642161 119.410745,165.495404 119.410745,163.685014 C119.410745,162.327221 120.311958,161.422026 121.663778,161.874624 C122.114385,161.874624 122.114385,161.874624 122.114385,160.516831 C121.213172,157.801246 121.213172,155.990855 121.663778,155.990855 C122.564991,155.990855 123.015598,156.896051 123.916811,158.706441 C124.367418,160.969429 124.818024,160.969429 126.169844,160.969429 C127.071057,160.516831 127.071057,160.516831 125.719237,157.801246 C124.818024,155.08566 124.818024,153.27527 125.719237,152.822672 C126.169844,152.822672 127.071057,153.27527 127.521664,154.633063 C127.97227,155.538258 128.873484,156.443453 128.873484,156.896051 C129.32409,157.348648 129.774697,157.801246 130.225303,158.706441 C130.225303,159.611636 130.67591,160.064234 131.126516,160.064234 C131.577123,160.064234 131.577123,159.159038 131.126516,157.801246 C130.67591,157.348648 130.225303,156.443453 130.225303,155.990855 C129.774697,155.08566 128.873484,153.27527 127.97227,151.917477 C124.818024,147.844099 121.213172,138.33955 122.114385,136.076562 C123.015598,133.813574 124.818024,136.52916 124.818024,139.697343 C124.818024,140.602538 126.169844,142.412928 127.071057,142.412928 C127.071057,142.412928 127.97227,143.318123 128.873484,144.223319 C129.32409,145.128514 130.67591,146.486306 131.126516,146.486306 C131.577123,146.938904 132.478336,147.844099 133.379549,148.749294 C134.280763,151.012282 134.731369,151.012282 134.731369,149.654489 C135.632582,147.391502 133.379549,143.770721 132.02773,143.770721 C131.577123,143.770721 131.126516,143.318123 130.67591,142.865526 C129.32409,139.244745 128.873484,138.33955 127.071057,135.623965 C125.268631,133.813574 124.818024,132.003184 124.367418,130.192794 C123.466205,127.024611 122.564991,124.761623 121.213172,122.046037 C120.762565,121.140842 120.762565,120.688245 121.663778,117.520062 C123.466205,112.994086 123.015598,111.636293 121.213172,114.351879 C120.762565,115.709671 119.861352,116.614867 119.861352,116.614867 C119.410745,116.614867 119.410745,116.162269 119.410745,115.257074 C119.410745,113.899281 119.410745,113.899281 118.509532,114.351879 C118.058925,115.257074 117.608319,116.162269 117.608319,117.972659 C117.157712,119.330452 116.707106,121.59344 116.256499,123.40383 C115.805893,125.21422 115.355286,127.477208 114.904679,129.287599 C114.904679,131.097989 114.003466,133.360977 114.003466,134.266172 C113.55286,135.171367 113.102253,137.886953 113.102253,140.14994 C112.20104,147.391502 111.299827,155.990855 110.398614,161.874624 C109.948007,164.590209 109.046794,170.02138 108.596187,174.547356 C108.145581,179.073332 107.694974,182.694112 107.244367,182.694112 C107.244367,183.599307 105.892548,190.840868 105.892548,192.198661 C105.892548,193.556454 105.441941,194.914247 104.991334,195.366844 C104.540728,196.272039 104.090121,197.629832 103.639515,198.987625 C103.639515,199.89282 103.188908,201.70321 102.287695,203.5136 C101.386482,205.776588 100.935875,206.229186 99.1334489,207.134381 C97.3310225,207.586979 96.4298094,208.039576 94.627383,207.586979 C91.0225303,207.134381 85.1646447,210.302564 85.1646447,212.112954 C85.1646447,213.018149 85.6152513,213.018149 86.0658579,213.018149 C87.8682842,212.565552 88.3188908,213.018149 88.3188908,213.470747 C88.3188908,214.375942 88.3188908,214.375942 91.0225303,214.375942 C93.7261698,214.375942 94.1767764,214.375942 94.1767764,215.281137 C94.1767764,216.186332 94.1767764,216.63893 95.9792028,215.281137 Z M115.355286,204.871393 C115.355286,204.418796 114.904679,204.418796 114.904679,204.418796 C114.454073,204.418796 114.003466,204.418796 114.003466,204.871393 C114.003466,205.323991 114.454073,205.323991 114.904679,205.323991 C114.904679,205.323991 115.355286,205.323991 115.355286,204.871393 Z M159.965338,199.440222 C159.514731,198.987625 159.064125,199.89282 159.514731,200.345417 C159.514731,200.798015 159.514731,200.798015 159.965338,200.345417 C159.965338,199.89282 159.965338,199.89282 159.965338,199.440222 Z M123.015598,188.577881 C123.466205,187.220088 123.916811,185.862295 123.916811,185.409698 C123.916811,185.409698 124.818024,183.14671 125.268631,180.883722 C126.169844,178.620734 127.071057,175.905149 127.071057,174.094758 C127.521664,171.83177 127.521664,171.379173 126.620451,171.379173 C126.169844,170.926575 125.719237,170.473978 125.719237,169.568783 C125.268631,168.663587 125.268631,167.758392 124.818024,166.853197 C124.818024,165.948002 124.367418,165.495404 123.916811,165.042807 C123.466205,164.590209 123.015598,163.685014 123.015598,163.232417 C122.564991,162.327221 122.564991,162.327221 122.114385,162.779819 C122.114385,163.232417 121.663778,163.685014 122.114385,164.137612 C122.564991,167.305795 123.466205,170.473978 123.916811,172.736966 C125.268631,176.357746 124.818024,177.715539 123.916811,178.168136 C123.466205,178.620734 123.015598,179.073332 123.015598,179.073332 C123.015598,179.525929 122.114385,181.788917 120.762565,184.051905 C119.861352,186.314893 118.509532,189.935673 117.608319,191.746064 C116.707106,194.914247 116.256499,199.440222 117.157712,199.89282 C117.157712,200.345417 120.762565,194.009051 123.015598,188.577881 Z M86.9670711,198.08243 C87.8682842,197.629832 89.6707106,196.724637 91.4731369,196.724637 C92.8249567,196.272039 94.1767764,195.819442 94.627383,195.366844 C95.0779896,195.366844 96.4298094,195.366844 98.2322357,195.366844 C101.837088,195.366844 102.287695,194.914247 102.738302,192.198661 C102.738302,189.483076 102.738302,189.483076 97.7816291,189.030478 C95.5285962,189.030478 93.2755633,188.577881 92.8249567,188.125283 C91.9237435,187.672685 90.1213172,187.672685 88.3188908,187.220088 C85.1646447,187.220088 84.7140381,187.220088 82.9116118,188.125283 C81.559792,189.030478 80.6585789,189.935673 80.2079723,190.388271 C79.3067591,191.293466 77.9549393,194.914247 77.9549393,196.272039 C77.9549393,197.177234 77.9549393,197.177234 78.4055459,195.819442 C78.8561525,194.914247 79.3067591,194.461649 80.2079723,194.461649 C81.559792,194.461649 81.559792,194.461649 81.559792,196.272039 C81.559792,198.08243 81.559792,198.08243 82.0103986,197.629832 C82.9116118,197.177234 84.2634315,197.177234 84.2634315,198.08243 C84.2634315,199.440222 85.1646447,198.987625 86.9670711,198.08243 Z M103.188908,184.9571 C102.738302,184.051905 99.1334489,183.14671 98.6828423,183.599307 C98.6828423,184.051905 98.6828423,184.504502 98.6828423,184.504502 C99.1334489,185.409698 103.188908,185.862295 103.188908,184.9571 Z M130.225303,165.495404 C130.225303,165.042807 128.422877,162.779819 128.422877,163.232417 C127.97227,163.232417 127.97227,164.137612 128.422877,164.590209 C128.422877,165.948002 129.32409,166.4006 130.225303,165.495404 Z M32.8942808,164.590209 C36.4991334,163.685014 40.1039861,161.874624 37.4003466,161.874624 C36.4991334,161.874624 30.6412478,163.232417 28.3882149,164.137612 C27.9376083,164.137612 27.4870017,164.590209 27.4870017,165.042807 C27.4870017,165.495404 27.4870017,165.495404 32.8942808,164.590209 Z M132.478336,152.370075 C132.02773,151.012282 131.126516,150.107087 131.126516,149.654489 C130.67591,148.749294 128.422877,148.296697 128.422877,149.201892 C128.422877,149.201892 128.873484,150.107087 129.774697,150.559685 C130.67591,151.46488 131.577123,152.370075 131.577123,153.727868 C132.478336,154.633063 132.478336,155.08566 132.928943,154.633063 C133.379549,154.633063 132.928943,153.727868 132.478336,152.370075 Z M222.599653,146.938904 C222.599653,146.033709 221.69844,146.486306 221.247834,147.391502 C221.247834,147.844099 221.247834,147.844099 221.69844,147.844099 C222.149047,147.844099 222.599653,147.391502 222.599653,146.938904 Z M136.083189,142.412928 C136.533795,141.960331 136.533795,141.055136 136.533795,141.055136 C136.083189,139.697343 134.731369,140.602538 134.731369,141.960331 C134.731369,142.865526 135.181976,143.318123 136.083189,142.412928 Z M139.237435,133.360977 C138.786828,132.455782 137.885615,132.003184 137.885615,133.360977 C137.885615,134.266172 137.885615,134.71877 138.336222,134.71877 C138.786828,135.171367 139.237435,134.266172 139.237435,133.360977 Z M127.071057,125.666818 C127.071057,123.856428 127.071057,123.40383 128.422877,122.951233 C129.32409,122.498635 130.225303,122.046037 130.225303,122.046037 C130.67591,122.046037 131.577123,121.59344 132.928943,120.688245 C134.280763,119.78305 134.731369,118.877854 134.731369,117.972659 C134.731369,117.067464 134.280763,116.614867 132.478336,117.972659 C132.02773,118.425257 130.225303,119.330452 128.873484,120.235647 C127.521664,120.688245 125.719237,121.59344 125.268631,121.59344 C124.367418,122.046037 124.367418,122.498635 124.818024,123.856428 C125.719237,128.382404 127.071057,129.287599 127.071057,125.666818 Z M124.367418,117.972659 C123.916811,117.520062 123.916811,117.972659 123.916811,118.425257 C123.916811,118.877854 123.916811,119.330452 124.367418,118.877854 C124.367418,118.877854 124.367418,117.972659 124.367418,117.972659 Z M141.490468,118.877854 C142.842288,118.425257 142.842288,117.520062 141.490468,117.520062 C141.039861,117.520062 140.138648,117.067464 139.688042,116.614867 C139.237435,116.162269 138.786828,115.709671 138.336222,115.709671 C137.885615,115.709671 136.984402,117.972659 136.984402,118.877854 C137.435009,119.330452 140.138648,119.330452 141.490468,118.877854 Z M171.681109,222.070101 C170.779896,220.712308 171.681109,220.259711 173.483536,220.259711 C174.835355,220.259711 175.285962,220.712308 175.285962,221.617503 C175.285962,222.522698 172.582322,222.975296 171.681109,222.070101 Z M196.915078,211.660357 C196.915078,211.207759 198.717504,209.849966 199.168111,209.849966 C200.069324,209.849966 199.618718,210.755162 198.266898,211.207759 C197.365685,211.660357 196.915078,212.112954 196.915078,211.660357 Z M66.2391681,201.250613 C65.7885615,201.250613 64.8873484,200.798015 63.5355286,200.798015 C56.3258232,199.440222 52.7209705,198.535027 52.270364,197.629832 C52.270364,196.724637 54.0727903,197.177234 59.0294627,198.08243 C61.2824957,198.535027 63.9861352,198.987625 65.3379549,199.440222 C68.492201,199.89282 69.8440208,200.798015 69.8440208,201.250613 C69.8440208,201.70321 66.6897747,201.70321 66.2391681,201.250613 Z M138.336222,188.577881 C137.435009,188.125283 137.885615,185.409698 138.786828,184.9571 C139.688042,184.504502 140.138648,185.409698 140.138648,187.220088 C140.138648,188.577881 140.138648,189.030478 139.237435,189.030478 C138.786828,189.030478 138.336222,189.030478 138.336222,188.577881 Z M145.545927,175.452551 C145.095321,174.547356 145.545927,173.642161 145.996534,173.642161 C146.897747,173.642161 147.79896,174.999953 147.348354,175.905149 C147.348354,176.810344 145.545927,176.357746 145.545927,175.452551 Z M48.2149047,174.999953 C47.3136915,174.094758 50.9185442,173.642161 59.4800693,173.642161 C67.5909879,173.642161 72.9982669,174.094758 73.8994801,175.452551 C73.8994801,175.452551 72.0970537,175.452551 69.3934142,174.999953 C63.5355286,174.547356 53.1715771,174.547356 50.4679376,174.999953 C49.1161179,175.452551 48.2149047,175.452551 48.2149047,174.999953 Z M148.249567,172.736966 C147.348354,172.284368 146.897747,170.02138 147.79896,170.02138 C149.15078,170.02138 152.755633,172.284368 152.755633,172.736966 C152.755633,173.642161 152.305026,173.642161 150.953206,173.642161 C150.051993,173.642161 148.700173,173.189563 148.249567,172.736966 Z M159.965338,164.137612 C159.064125,163.685014 157.712305,163.232417 156.360485,163.232417 C153.206239,162.779819 152.755633,162.327221 152.755633,161.422026 C152.755633,160.969429 153.206239,160.969429 155.008666,160.969429 C157.712305,160.969429 162.218371,162.779819 162.668977,164.137612 C162.668977,165.495404 161.317158,165.042807 159.965338,164.137612 Z M7.20970537,162.327221 C8.11091854,161.874624 9.91334489,161.422026 10.8145581,160.969429 L12.6169844,160.969429 L10.8145581,161.874624 C9.4627383,162.327221 8.11091854,162.779819 7.20970537,162.779819 L5.40727903,163.232417 L7.20970537,162.327221 Z M0,160.516831 C0.450606586,159.159038 8.56152513,155.08566 8.56152513,156.443453 C8.56152513,156.896051 5.40727903,159.159038 4.50606586,159.159038 C4.50606586,159.159038 3.60485269,159.611636 3.1542461,160.516831 C1.35181976,161.422026 0,161.874624 0,160.516831 Z M163.570191,157.801246 C163.570191,156.896051 163.119584,155.538258 162.668977,155.08566 C162.668977,154.180465 162.218371,153.727868 162.218371,153.27527 C162.218371,151.917477 163.119584,151.917477 164.471404,153.27527 C165.823224,155.08566 166.27383,155.08566 168.076256,154.633063 C170.779896,154.633063 171.230503,155.08566 169.428076,156.443453 C168.526863,156.443453 167.62565,157.801246 167.175043,158.706441 C166.724437,159.611636 165.823224,160.064234 165.372617,160.064234 C164.020797,160.064234 164.020797,159.611636 163.570191,157.801246 Z M18.9254766,159.159038 C18.9254766,158.706441 21.6291161,157.801246 22.5303293,157.801246 C23.4315425,157.801246 23.4315425,157.801246 22.9809359,158.253843 C22.5303293,158.706441 18.9254766,159.611636 18.9254766,159.159038 Z M25.6845754,157.348648 C25.2339688,156.896051 25.2339688,156.896051 26.5857886,156.896051 C28.8388215,156.443453 32.8942808,155.990855 34.2461005,155.990855 C35.1473137,155.990855 37.8509532,155.538258 40.1039861,154.633063 C45.0606586,153.27527 50.017331,152.822672 50.4679376,153.727868 C50.9185442,154.180465 48.6655113,154.633063 45.0606586,155.538258 C43.7088388,155.538258 41.4558059,156.443453 39.6533795,156.443453 C36.0485269,157.348648 26.5857886,157.801246 25.6845754,157.348648 Z M13.5181976,154.180465 C13.9688042,153.727868 15.7712305,153.27527 17.1230503,153.27527 C18.47487,152.822672 20.2772964,152.370075 21.1785095,152.370075 C22.0797227,151.917477 23.882149,151.917477 25.2339688,151.917477 C27.9376083,151.917477 29.2894281,151.46488 27.9376083,151.012282 C27.4870017,150.559685 24.7833622,150.559685 22.0797227,151.012282 C17.1230503,151.012282 16.6724437,151.012282 16.2218371,150.107087 C16.2218371,149.654489 15.7712305,149.201892 15.3206239,148.749294 C14.8700173,147.844099 14.8700173,147.844099 18.47487,147.844099 C21.6291161,147.844099 23.4315425,147.391502 27.9376083,146.033709 C31.0918544,145.128514 33.7954939,144.675916 33.7954939,144.223319 C34.2461005,143.770721 32.4436742,142.865526 29.7400347,142.865526 C28.3882149,142.412928 26.135182,141.960331 24.7833622,141.507733 C21.1785095,140.14994 15.3206239,137.434355 15.3206239,136.981757 C15.3206239,136.076562 17.5736568,136.52916 18.9254766,137.886953 C22.0797227,140.14994 27.9376083,141.507733 36.4991334,141.960331 C39.6533795,141.960331 43.2582322,141.960331 44.1594454,142.412928 C45.0606586,142.865526 46.8630849,142.865526 47.7642981,142.865526 C49.5667244,142.865526 51.3691508,143.770721 50.4679376,144.223319 C50.4679376,144.675916 48.2149047,144.675916 45.9618718,144.675916 C42.3570191,144.675916 40.1039861,145.128514 35.1473137,146.486306 C26.5857886,148.296697 25.6845754,149.201892 31.542461,149.654489 C32.8942808,149.654489 34.6967071,149.654489 34.6967071,150.107087 C34.6967071,150.559685 32.8942808,151.012282 31.9930676,151.012282 C31.0918544,150.559685 31.0918544,151.46488 31.9930676,151.917477 C32.4436742,152.370075 32.8942808,152.370075 34.6967071,151.917477 C40.1039861,150.107087 42.3570191,149.654489 46.4124783,149.201892 C49.1161179,148.749294 51.3691508,148.749294 51.8197574,149.201892 C53.1715771,149.654489 52.7209705,150.107087 50.4679376,150.559685 C47.7642981,150.559685 41.9064125,151.917477 38.3015598,152.822672 C31.9930676,154.633063 26.135182,155.08566 24.7833622,154.180465 C24.3327556,153.727868 23.4315425,153.727868 21.1785095,154.180465 C18.9254766,154.180465 16.6724437,154.633063 15.3206239,154.633063 C13.067591,154.633063 13.067591,154.633063 13.5181976,154.180465 Z M165.372617,151.012282 C164.92201,150.107087 163.570191,148.296697 162.668977,146.938904 C159.965338,143.318123 160.415945,142.412928 163.570191,142.412928 C164.471404,142.412928 164.92201,142.865526 165.823224,143.770721 C167.175043,145.581111 169.428076,146.486306 172.131716,146.486306 C173.483536,146.486306 174.384749,147.391502 173.483536,147.844099 C173.032929,148.296697 171.230503,148.296697 169.878683,148.296697 C167.175043,148.296697 166.724437,148.296697 166.724437,149.201892 C168.076256,152.370075 167.175043,153.727868 165.372617,151.012282 Z M87.8682842,147.844099 C86.9670711,146.938904 84.7140381,145.128514 83.3622184,144.223319 C82.0103986,143.318123 80.6585789,142.412928 80.6585789,142.412928 C79.3067591,141.055136 68.9428076,136.52916 66.6897747,136.52916 C66.2391681,136.52916 65.3379549,136.52916 64.8873484,136.076562 C63.5355286,135.623965 62.1837088,134.71877 59.9306759,134.266172 C59.0294627,133.813574 56.3258232,132.908379 54.5233969,132.003184 C50.9185442,130.645391 50.9185442,130.192794 45.0606586,128.382404 C41.4558059,127.477208 40.1039861,126.572013 41.9064125,126.572013 C43.2582322,126.572013 49.1161179,128.382404 50.9185442,129.287599 C51.8197574,129.740196 53.1715771,130.192794 53.6221837,130.192794 C54.5233969,130.645391 57.2270364,131.550587 59.4800693,132.455782 C62.1837088,133.360977 64.8873484,134.71877 66.2391681,134.71877 C72.9982669,136.076562 78.8561525,138.792148 82.4610052,142.412928 C83.812825,143.770721 85.1646447,144.675916 85.1646447,144.675916 C85.6152513,144.675916 86.5164645,145.128514 87.4176776,145.581111 C89.220104,146.938904 89.6707106,146.486306 88.7694974,145.128514 C87.4176776,143.318123 88.3188908,143.318123 89.6707106,145.128514 C91.0225303,146.486306 91.4731369,147.391502 90.5719237,147.391502 C90.1213172,147.391502 90.5719237,147.844099 90.5719237,148.296697 C92.3743501,151.012282 90.5719237,150.559685 87.8682842,147.844099 Z M171.230503,144.675916 C170.779896,144.223319 170.329289,142.865526 170.329289,141.960331 C169.878683,141.055136 169.428076,139.697343 168.526863,139.244745 C167.62565,138.33955 167.175043,136.076562 168.076256,136.076562 C168.526863,136.076562 169.428076,136.981757 170.779896,137.886953 C172.582322,139.697343 175.285962,140.602538 177.088388,140.14994 C178.440208,140.14994 178.440208,138.33955 177.088388,138.33955 C176.187175,138.33955 174.384749,136.981757 174.384749,136.076562 C174.384749,135.623965 174.835355,135.623965 175.736568,135.623965 C182.045061,136.981757 187.45234,136.076562 191.057192,132.908379 C192.859619,130.645391 194.211438,131.097989 193.310225,132.908379 C193.310225,134.266172 189.705373,136.981757 187.902946,137.434355 C187.001733,137.434355 185.649913,137.886953 181.594454,139.697343 C181.143847,140.14994 180.242634,141.055136 179.792028,141.960331 C178.890815,143.318123 178.440208,143.770721 175.285962,142.865526 C174.384749,142.412928 173.032929,141.960331 173.032929,142.412928 C172.131716,142.412928 172.582322,143.770721 173.032929,144.223319 C173.934142,144.223319 173.483536,145.581111 173.032929,145.581111 C172.582322,145.581111 171.681109,145.128514 171.230503,144.675916 Z M67.1403813,140.602538 C65.7885615,140.14994 63.9861352,139.697343 63.5355286,139.244745 C63.084922,139.244745 60.8318891,138.792148 59.0294627,138.33955 C54.0727903,136.981757 43.7088388,136.076562 38.7521664,135.623965 C34.2461005,135.623965 32.4436742,135.623965 32.4436742,134.71877 C32.4436742,134.266172 35.5979203,134.266172 45.5112652,134.71877 C54.0727903,135.171367 57.2270364,135.623965 63.9861352,137.886953 C69.3934142,139.697343 71.1958406,140.602538 70.745234,141.055136 C70.745234,141.507733 69.8440208,141.507733 67.1403813,140.602538 Z M84.7140381,141.055136 C84.2634315,140.602538 84.2634315,140.14994 84.7140381,140.14994 C84.7140381,140.14994 85.1646447,140.602538 85.6152513,141.055136 C86.0658579,141.507733 86.0658579,141.507733 85.6152513,141.507733 C85.1646447,141.507733 84.7140381,141.055136 84.7140381,141.055136 Z M52.270364,140.602538 C51.8197574,140.602538 47.7642981,140.14994 42.3570191,140.14994 C34.2461005,140.14994 32.8942808,140.14994 29.7400347,139.244745 C27.9376083,138.792148 26.135182,138.33955 25.6845754,138.33955 C25.2339688,138.33955 23.4315425,137.886953 21.6291161,136.981757 C16.2218371,135.171367 18.47487,135.171367 25.6845754,136.981757 C31.542461,138.33955 31.9930676,138.33955 39.202773,138.33955 C46.4124783,138.33955 56.7764298,138.792148 58.1282496,139.697343 C58.1282496,140.14994 58.5788562,140.602538 58.5788562,140.602538 C58.5788562,141.055136 52.7209705,141.055136 52.270364,140.602538 Z M82.9116118,139.244745 C82.4610052,139.244745 82.4610052,137.886953 82.9116118,137.886953 C82.9116118,137.886953 83.3622184,138.33955 83.812825,138.792148 C84.2634315,139.697343 84.2634315,139.697343 82.9116118,139.244745 Z M77.9549393,136.076562 C76.6031196,135.623965 75.2512998,134.71877 74.3500867,134.71877 C72.9982669,133.813574 72.5476603,132.908379 73.8994801,133.360977 C75.7019064,133.360977 80.2079723,135.171367 80.6585789,136.076562 C81.1091854,137.434355 80.2079723,137.434355 77.9549393,136.076562 Z M221.247834,133.360977 C220.797227,132.908379 219.896014,131.550587 218.994801,129.740196 C218.093588,127.929806 217.192374,126.119416 216.291161,125.21422 C215.840555,124.761623 215.389948,123.856428 215.389948,123.40383 C215.389948,122.046037 220.797227,121.59344 221.247834,122.951233 C221.247834,123.40383 221.247834,123.856428 220.34662,123.856428 C218.544194,123.856428 218.544194,124.761623 219.896014,127.477208 C222.149047,130.645391 222.599653,131.097989 222.599653,132.455782 C222.599653,133.360977 222.149047,133.813574 221.247834,133.360977 Z M176.637782,132.908379 C176.187175,132.908379 175.736568,132.455782 175.736568,132.003184 C175.736568,131.550587 176.637782,131.550587 177.989601,131.550587 C179.341421,131.550587 179.792028,131.550587 179.792028,130.192794 C180.242634,128.835001 179.792028,128.382404 178.890815,128.382404 C177.538995,128.382404 175.736568,127.477208 176.187175,126.572013 C176.637782,126.119416 177.538995,126.119416 179.792028,126.572013 C182.495667,126.572013 182.946274,126.572013 183.39688,125.666818 C183.847487,124.309025 185.199307,123.856428 185.199307,124.761623 C185.199307,125.21422 185.199307,125.21422 185.649913,125.21422 C186.10052,125.21422 186.10052,124.309025 186.10052,122.951233 C186.10052,120.688245 186.10052,120.235647 187.45234,119.330452 C189.254766,117.520062 191.958406,116.162269 192.859619,116.614867 C193.310225,116.614867 193.310225,120.235647 192.859619,123.40383 C192.409012,125.21422 191.958406,125.666818 191.057192,126.119416 C190.155979,126.572013 190.155979,126.572013 190.606586,127.024611 C191.057192,127.477208 191.507799,127.929806 192.859619,127.477208 C194.211438,127.024611 195.112652,127.024611 195.112652,127.477208 C196.013865,127.929806 195.112652,128.835001 193.760832,128.835001 C192.409012,128.835001 188.353553,130.645391 187.45234,131.550587 C186.551127,132.003184 186.10052,132.003184 185.649913,131.550587 C185.199307,131.550587 184.7487,131.550587 183.847487,132.003184 C182.045061,132.908379 177.989601,133.360977 176.637782,132.908379 Z M177.989601,123.856428 C177.088388,120.235647 177.088388,118.877854 177.989601,118.425257 C177.989601,118.425257 178.890815,118.877854 179.341421,119.330452 C180.242634,119.78305 181.143847,120.235647 181.594454,120.688245 C182.946274,121.140842 183.39688,122.046037 182.495667,122.498635 C182.045061,122.951233 181.594454,123.40383 181.594454,123.856428 C181.594454,124.761623 181.143847,124.761623 179.792028,124.761623 C178.440208,124.761623 177.989601,124.761623 177.989601,123.856428 Z M195.112652,120.688245 C195.112652,118.877854 196.013865,117.067464 196.464471,117.972659 C196.915078,118.425257 196.915078,121.59344 196.464471,122.046037 C195.563258,122.951233 195.112652,122.498635 195.112652,120.688245 Z M214.038128,117.972659 C213.587522,117.972659 213.136915,117.520062 213.136915,116.614867 C213.136915,115.709671 212.686308,114.804476 211.785095,114.351879 C211.334489,113.899281 210.433276,112.541488 209.982669,111.636293 C209.532062,110.731098 208.630849,109.373305 208.180243,108.920708 C207.279029,108.46811 206.377816,107.562915 205.476603,106.205122 C203.674177,104.394732 203.674177,104.394732 204.124783,103.489537 C204.57539,102.584342 204.124783,102.131744 202.772964,100.773952 C200.519931,98.5109638 200.069324,96.2479759 199.618718,91.7220002 C199.168111,89.9116099 198.717504,88.1012196 198.266898,87.648622 C197.816291,86.7434269 197.365685,85.3856342 197.816291,84.9330366 C197.816291,83.5752439 197.365685,83.1226463 195.563258,80.8596584 C193.760832,78.5966706 193.310225,78.144073 193.760832,77.2388779 C194.211438,76.7862803 193.760832,76.3336827 191.958406,73.6180973 C190.606586,71.3551094 189.705373,69.9973167 189.705373,69.5447191 C189.705373,68.1869264 191.057192,69.0921216 193.760832,73.1654997 C196.915078,77.2388779 197.365685,78.144073 197.365685,79.0492682 C196.915078,80.4070609 197.365685,80.8596584 200.970537,84.480439 L204.57539,88.5538172 L204.124783,90.3642075 C204.124783,92.1745977 204.124783,93.0797929 205.476603,95.7953783 C206.828423,98.5109638 206.828423,98.5109638 205.92721,98.9635613 C204.57539,99.4161589 205.025997,100.773952 207.279029,102.584342 C210.433276,104.84733 210.883882,105.752525 209.532062,106.65772 C209.081456,107.110318 209.081456,107.110318 209.532062,108.015513 C211.785095,111.636293 212.686308,112.994086 214.038128,113.899281 C214.939341,114.351879 215.840555,114.804476 215.840555,115.257074 C215.840555,115.709671 216.741768,116.162269 217.642981,116.614867 C218.994801,117.067464 218.994801,117.067464 218.544194,117.972659 C217.642981,118.425257 215.389948,118.425257 214.038128,117.972659 Z M203.674177,96.7005735 C203.674177,96.2479759 203.674177,95.3427807 203.22357,94.8901832 C202.772964,93.0797929 202.322357,92.6271953 201.87175,93.0797929 C201.421144,93.984988 201.421144,94.4375856 202.322357,96.2479759 C203.22357,98.0583662 204.124783,98.0583662 203.674177,96.7005735 Z M186.10052,117.520062 C185.649913,117.067464 183.847487,116.614867 182.946274,116.162269 C180.242634,115.257074 177.538995,113.899281 177.538995,113.446684 C177.538995,112.994086 177.989601,112.994086 178.890815,112.541488 C179.792028,112.088891 179.792028,112.088891 179.341421,111.183696 C178.890815,109.373305 180.242634,109.373305 181.594454,111.183696 C182.495667,112.088891 183.847487,112.994086 184.7487,113.446684 C187.001733,114.351879 187.902946,115.257074 187.902946,116.614867 C187.902946,117.972659 187.902946,118.425257 186.10052,117.520062 Z M104.991334,113.446684 C105.441941,109.373305 107.244367,105.299927 109.046794,103.036939 C110.84922,100.773952 111.299827,98.5109638 110.398614,98.5109638 C110.398614,98.5109638 109.4974,99.4161589 109.046794,100.321354 C108.145581,101.679147 106.793761,102.131744 106.343154,101.226549 C106.343154,100.321354 107.694974,97.153171 109.948007,94.8901832 C110.84922,93.5323905 113.102253,93.0797929 112.20104,94.4375856 C111.750433,96.2479759 111.750433,96.7005735 113.55286,97.153171 C116.256499,98.5109638 116.707106,98.9635613 116.256499,100.773952 C115.805893,103.036939 114.904679,103.036939 114.454073,100.773952 C114.454073,98.9635613 114.003466,98.9635613 113.55286,99.4161589 C113.55286,99.8687565 113.102253,100.321354 113.102253,101.226549 C112.651646,101.679147 112.20104,102.584342 111.299827,103.036939 C109.4974,105.299927 109.046794,106.205122 108.596187,108.920708 C108.596187,109.825903 108.145581,112.088891 107.694974,113.899281 C106.793761,116.162269 106.793761,116.614867 105.892548,116.614867 C104.991334,116.614867 104.991334,116.614867 104.991334,113.446684 Z M110.398614,113.446684 C109.4974,112.994086 109.948007,111.183696 111.299827,108.015513 C114.003466,103.489537 115.355286,103.942135 113.55286,109.373305 C112.20104,112.994086 111.299827,114.804476 110.398614,113.446684 Z M177.989601,103.942135 C176.637782,102.584342 176.637782,98.9635613 177.989601,98.0583662 C178.440208,97.153171 179.341421,97.153171 179.341421,98.5109638 C179.341421,98.9635613 180.242634,100.321354 181.143847,101.226549 C182.946274,103.489537 183.39688,104.84733 182.045061,104.394732 C181.594454,103.942135 181.143847,104.394732 180.693241,104.84733 C180.242634,105.752525 178.890815,105.299927 177.989601,103.942135 Z M126.620451,102.131744 C126.620451,100.321354 127.071057,99.4161589 127.521664,99.4161589 C128.422877,99.4161589 128.422877,99.8687565 128.422877,101.226549 C128.422877,103.036939 127.97227,104.84733 127.071057,104.84733 C126.620451,104.84733 126.620451,103.942135 126.620451,102.131744 Z M100.034662,103.036939 C100.034662,102.131744 103.188908,99.4161589 104.090121,99.4161589 C104.991334,99.4161589 104.540728,100.773952 103.188908,102.131744 C101.386482,103.489537 100.034662,103.942135 100.034662,103.036939 Z M131.577123,102.131744 C130.67591,101.679147 131.126516,100.321354 132.02773,100.321354 C132.928943,99.8687565 133.379549,100.773952 132.928943,101.679147 C132.928943,102.584342 132.02773,103.036939 131.577123,102.131744 Z M135.181976,99.8687565 C134.731369,98.5109638 134.731369,97.6057686 135.181976,96.2479759 C136.083189,95.7953783 136.083189,95.7953783 136.533795,96.2479759 C136.984402,96.7005735 136.984402,98.0583662 136.984402,98.9635613 C136.984402,100.773952 136.984402,101.226549 136.083189,101.226549 C136.083189,101.226549 135.632582,100.773952 135.181976,99.8687565 Z M154.558059,100.773952 C154.107452,100.773952 154.107452,98.9635613 154.107452,97.153171 C154.107452,93.984988 154.107452,93.984988 155.008666,93.984988 C156.360485,93.984988 156.811092,94.8901832 156.811092,97.6057686 C156.811092,99.8687565 156.360485,101.226549 155.459272,101.226549 C155.008666,101.226549 154.558059,101.226549 154.558059,100.773952 Z M63.5355286,99.4161589 C60.3812825,97.6057686 59.9306759,96.7005735 60.8318891,92.1745977 C61.2824957,89.4590123 61.2824957,86.2908293 61.2824957,82.2174512 C60.8318891,79.0492682 60.8318891,74.5232924 61.2824957,71.807707 C61.7331023,67.2817313 61.7331023,66.8291337 60.8318891,65.471341 C60.3812825,65.0187434 59.0294627,64.1135483 57.677643,63.6609507 C56.3258232,63.2083531 55.4246101,62.7557556 55.4246101,62.303158 C55.4246101,61.3979629 54.9740035,61.3979629 52.270364,61.3979629 C50.9185442,61.8505604 49.5667244,61.8505604 49.5667244,61.3979629 C49.5667244,60.9453653 50.4679376,58.2297798 50.9185442,57.3245847 C51.3691508,56.8719871 54.0727903,56.4193896 55.4246101,56.8719871 C55.8752166,56.8719871 56.7764298,57.7771823 56.7764298,58.2297798 C57.2270364,58.6823774 58.1282496,59.5875726 59.4800693,60.0401701 C61.7331023,60.4927677 63.084922,61.3979629 63.9861352,63.2083531 C64.4367418,64.5661459 64.4367418,65.471341 63.9861352,71.3551094 C63.5355286,76.7862803 63.5355286,78.5966706 63.9861352,80.4070609 C64.4367418,82.2174512 64.4367418,83.5752439 63.9861352,84.9330366 C63.9861352,85.8382317 63.5355286,88.1012196 63.5355286,90.3642075 L63.5355286,94.4375856 L65.3379549,93.984988 C67.1403813,93.984988 68.0415945,93.984988 69.3934142,95.3427807 C70.745234,96.2479759 72.0970537,96.7005735 72.5476603,96.7005735 C72.9982669,96.7005735 73.8994801,95.7953783 75.2512998,94.8901832 C76.152513,93.984988 77.5043328,93.0797929 77.9549393,92.6271953 C79.3067591,91.7220002 79.7573657,90.3642075 78.8561525,90.3642075 C78.4055459,90.3642075 77.9549393,90.3642075 77.9549393,90.3642075 C77.0537262,89.9116099 77.0537262,89.0064147 77.5043328,89.0064147 C77.9549393,88.5538172 79.3067591,88.5538172 80.2079723,88.1012196 C82.4610052,87.648622 82.4610052,87.1960245 83.812825,84.9330366 C84.7140381,83.1226463 85.1646447,81.7648536 85.1646447,81.7648536 C85.1646447,81.312256 86.0658579,79.5018657 86.9670711,77.6914754 C87.8682842,74.97589 88.7694974,74.0706949 90.5719237,72.7129022 C91.9237435,71.807707 93.2755633,70.9025119 93.7261698,70.9025119 C94.627383,70.9025119 94.627383,70.9025119 94.627383,72.7129022 C94.1767764,74.0706949 93.7261698,74.97589 91.9237435,77.2388779 C90.5719237,78.5966706 89.220104,79.9544633 88.7694974,80.8596584 C87.4176776,83.1226463 86.0658579,85.8382317 86.0658579,87.1960245 C86.0658579,90.3642075 76.152513,98.0583662 71.1958406,99.4161589 C67.1403813,100.773952 65.7885615,100.321354 63.5355286,99.4161589 Z M195.563258,99.4161589 C195.112652,98.9635613 195.563258,98.0583662 196.013865,98.0583662 C196.464471,98.0583662 196.464471,98.5109638 196.464471,98.9635613 C196.464471,99.8687565 196.013865,100.321354 195.563258,99.4161589 Z M197.816291,98.0583662 C196.915078,97.153171 196.464471,92.1745977 197.365685,92.1745977 C197.816291,92.1745977 198.266898,93.0797929 198.266898,93.5323905 C198.266898,93.984988 198.717504,94.8901832 199.168111,95.7953783 C200.069324,98.0583662 199.168111,99.8687565 197.816291,98.0583662 Z M138.786828,96.2479759 C137.885615,94.8901832 137.885615,91.7220002 138.336222,91.2694026 C139.237435,90.3642075 140.138648,91.7220002 140.589255,94.4375856 C140.589255,96.7005735 140.589255,97.153171 140.138648,97.153171 C139.688042,97.153171 139.237435,96.7005735 138.786828,96.2479759 Z M104.991334,94.8901832 C104.991334,94.4375856 108.145581,90.816805 109.046794,90.816805 C110.398614,90.816805 109.948007,91.7220002 108.145581,93.5323905 C105.892548,95.3427807 105.441941,95.3427807 104.991334,94.8901832 Z M99.5840555,93.984988 C98.6828423,93.5323905 99.1334489,93.0797929 100.485269,92.1745977 C101.386482,92.1745977 102.287695,91.7220002 102.738302,91.7220002 C103.188908,91.7220002 103.188908,93.0797929 102.738302,93.5323905 C101.837088,93.984988 100.034662,94.4375856 99.5840555,93.984988 Z M141.941075,92.1745977 C141.941075,91.7220002 141.941075,90.3642075 141.490468,89.4590123 C141.039861,86.7434269 141.490468,85.8382317 142.842288,86.7434269 C143.743501,88.1012196 143.743501,92.1745977 142.842288,92.6271953 C142.391681,92.6271953 141.941075,92.6271953 141.941075,92.1745977 Z M158.613518,90.816805 C158.162912,90.816805 158.162912,90.3642075 158.162912,89.4590123 C158.162912,88.1012196 159.514731,88.5538172 159.965338,89.9116099 C159.965338,91.2694026 159.064125,91.7220002 158.613518,90.816805 Z M98.2322357,89.4590123 C97.7816291,88.5538172 98.2322357,88.1012196 99.5840555,87.648622 C100.485269,87.648622 101.386482,87.1960245 101.386482,86.7434269 C101.386482,85.8382317 101.386482,85.8382317 99.5840555,85.8382317 C97.3310225,86.2908293 96.8804159,85.8382317 98.2322357,84.0278414 C99.1334489,83.5752439 99.5840555,82.6700487 99.5840555,82.6700487 C99.5840555,82.2174512 100.485269,81.312256 101.386482,80.4070609 C103.639515,79.0492682 106.793761,75.8810852 107.694974,73.6180973 C108.596187,72.2603046 109.046794,71.807707 109.4974,71.807707 C110.398614,71.807707 111.299827,71.3551094 112.20104,70.4499143 C114.454073,68.1869264 116.256499,68.1869264 116.256499,69.9973167 C116.256499,70.4499143 116.707106,71.3551094 117.157712,71.3551094 C118.509532,71.3551094 119.410745,69.0921216 119.410745,66.3765361 C119.410745,64.5661459 119.410745,64.1135483 120.311958,63.6609507 C121.663778,63.2083531 122.114385,62.7557556 123.015598,60.9453653 C124.367418,57.7771823 124.818024,55.966792 125.268631,54.6089993 C125.719237,52.798609 127.071057,51.8934138 127.521664,52.798609 C127.97227,53.2512066 127.97227,54.1564017 127.97227,55.0615968 C127.97227,56.4193896 127.97227,56.8719871 129.774697,57.7771823 C132.478336,59.134975 132.928943,59.134975 134.731369,57.3245847 C136.533795,55.0615968 136.984402,52.798609 135.632582,51.8934138 C135.181976,51.4408163 134.731369,50.0830236 134.280763,48.7252308 C133.379549,45.5570478 132.928943,46.0096454 132.478336,49.630426 C132.478336,52.3460114 132.02773,52.798609 131.126516,52.798609 C130.225303,52.798609 130.225303,52.798609 130.225303,50.5356211 C130.225303,49.630426 129.774697,47.3674381 129.774697,45.5570478 C129.32409,43.29406 129.32409,42.8414624 129.774697,41.4836697 C130.67591,39.2206818 130.67591,38.7680843 130.225303,36.957694 C128.873484,34.6947061 129.32409,34.2421085 130.225303,33.3369134 C131.126516,33.3369134 131.126516,32.8843158 131.126516,31.0739255 C131.126516,30.1687304 131.126516,28.3583401 131.577123,27.9057425 C131.577123,27.0005474 131.577123,27.0005474 133.379549,27.453145 C135.632582,27.453145 136.083189,27.0005474 136.083189,25.1901571 C136.083189,23.8323644 136.083189,23.8323644 135.181976,23.8323644 C132.928943,24.284962 132.02773,23.8323644 130.225303,22.0219741 C129.32409,21.1167789 128.422877,20.2115838 128.422877,19.7589862 C128.422877,19.3063887 129.774697,18.8537911 130.67591,19.3063887 C131.577123,19.3063887 131.577123,19.3063887 131.577123,17.9485959 C131.577123,17.0434008 132.02773,16.5908032 132.478336,16.1382057 C133.830156,15.2330105 133.379549,14.7804129 131.126516,14.3278154 C129.774697,14.3278154 129.32409,13.8752178 129.32409,13.4226202 C129.32409,12.9700227 129.774697,12.5174251 131.577123,12.5174251 C133.830156,12.0648275 134.731369,12.0648275 136.083189,12.9700227 C136.984402,13.4226202 138.786828,13.8752178 139.688042,13.8752178 C141.039861,13.8752178 141.490468,14.3278154 141.490468,15.6856081 C141.490468,16.5908032 141.941075,17.9485959 142.391681,17.9485959 C142.391681,18.4011935 144.644714,18.4011935 146.897747,18.8537911 C148.700173,18.8537911 150.953206,18.8537911 150.953206,19.3063887 C151.403813,19.3063887 151.403813,19.7589862 151.403813,20.6641814 C151.403813,21.5693765 151.854419,21.5693765 153.656846,22.0219741 C156.811092,22.9271692 158.162912,23.8323644 157.261698,24.7375595 C156.811092,25.1901571 152.305026,24.284962 148.249567,22.9271692 C146.44714,22.4745717 145.095321,22.0219741 145.095321,22.0219741 C144.644714,22.0219741 144.644714,24.284962 145.095321,24.7375595 C145.545927,24.7375595 145.545927,27.0005474 145.545927,29.7161328 C145.545927,35.5999013 145.996534,33.789511 140.589255,48.7252308 C137.885615,55.966792 136.083189,59.5875726 133.830156,60.4927677 C132.928943,60.9453653 132.478336,61.8505604 131.577123,65.0187434 C130.225303,68.639524 129.774697,69.0921216 128.422877,70.4499143 C127.521664,71.3551094 126.169844,72.7129022 125.719237,73.1654997 C125.268631,74.0706949 124.818024,74.5232924 123.916811,74.5232924 C123.015598,74.5232924 121.213172,74.97589 119.861352,76.3336827 C116.707106,78.144073 114.454073,78.144073 114.003466,76.7862803 C114.003466,75.8810852 113.102253,75.4284876 113.102253,76.3336827 C112.651646,76.7862803 112.20104,76.7862803 111.299827,76.7862803 C110.398614,76.7862803 109.4974,77.2388779 108.596187,78.144073 C108.145581,78.5966706 106.793761,79.5018657 105.892548,79.9544633 C104.540728,80.4070609 104.090121,81.312256 105.441941,81.312256 C107.244367,81.312256 106.343154,83.1226463 103.639515,84.480439 C101.837088,85.3856342 101.837088,85.8382317 104.090121,85.8382317 C105.892548,85.8382317 106.343154,85.3856342 107.244367,84.9330366 C107.694974,84.0278414 108.596187,83.5752439 109.046794,83.5752439 C109.948007,83.5752439 109.4974,84.9330366 108.145581,86.2908293 C106.343154,88.5538172 98.6828423,90.816805 98.2322357,89.4590123 Z M144.644714,79.9544633 C143.292894,79.0492682 143.292894,78.144073 144.644714,78.144073 C145.545927,78.144073 148.249567,79.5018657 148.249567,80.4070609 C148.249567,81.7648536 145.996534,81.7648536 144.644714,79.9544633 Z M95.0779896,78.5966706 C95.0779896,76.7862803 96.8804159,74.97589 97.7816291,74.97589 C99.1334489,74.97589 99.5840555,74.0706949 99.5840555,72.2603046 C99.5840555,71.3551094 98.2322357,70.4499143 96.8804159,70.4499143 C95.5285962,70.4499143 94.627383,69.5447191 94.627383,67.7343289 C94.627383,67.2817313 95.5285962,66.3765361 96.4298094,65.471341 C98.2322357,63.6609507 98.2322357,62.303158 96.8804159,59.134975 C95.9792028,58.2297798 95.5285962,56.4193896 95.5285962,55.966792 C95.5285962,55.5141944 95.0779896,54.1564017 94.627383,53.2512066 C94.1767764,51.8934138 93.7261698,50.5356211 93.7261698,49.1778284 C93.7261698,47.3674381 93.7261698,46.9148405 91.9237435,46.0096454 C91.0225303,45.1044503 89.6707106,43.7466575 88.7694974,41.9362673 C87.8682842,40.125877 86.5164645,38.3154867 86.0658579,37.4102915 C85.1646447,36.5050964 84.7140381,35.1473037 85.6152513,34.2421085 C86.0658579,33.789511 85.6152513,31.5265231 84.7140381,31.5265231 C84.2634315,31.5265231 83.812825,31.0739255 83.3622184,30.621328 C82.9116118,30.1687304 82.9116118,30.1687304 83.3622184,29.7161328 C84.2634315,29.2635352 86.0658579,29.7161328 87.4176776,30.621328 C87.8682842,31.0739255 88.3188908,31.5265231 88.3188908,31.5265231 C89.220104,31.5265231 88.7694974,29.2635352 87.8682842,28.3583401 C86.0658579,25.6427547 87.4176776,24.7375595 89.6707106,27.0005474 C90.5719237,27.9057425 91.4731369,28.8109377 92.3743501,29.2635352 C93.2755633,29.7161328 93.2755633,30.1687304 93.2755633,31.9791207 L93.2755633,34.2421085 L95.0779896,32.4317182 L97.3310225,30.621328 L101.386482,30.621328 C105.441941,30.621328 106.793761,31.0739255 106.343154,32.4317182 C106.343154,32.8843158 105.441941,32.8843158 103.639515,32.8843158 C101.386482,32.8843158 100.034662,33.3369134 97.7816291,34.2421085 C94.627383,35.5999013 94.1767764,36.957694 95.0779896,40.5784745 C95.0779896,41.4836697 95.0779896,42.8414624 95.0779896,43.29406 C95.0779896,43.7466575 95.5285962,44.1992551 95.5285962,44.6518527 C95.9792028,45.5570478 96.4298094,47.3674381 96.8804159,49.1778284 C97.3310225,50.9882187 98.6828423,54.1564017 99.5840555,55.966792 C100.485269,58.2297798 100.935875,60.0401701 101.386482,62.303158 C101.386482,64.1135483 101.837088,65.471341 102.287695,65.9239386 C102.287695,66.3765361 102.738302,67.2817313 102.738302,68.1869264 C102.738302,69.5447191 102.738302,69.9973167 103.188908,69.9973167 C104.090121,69.9973167 104.991334,69.0921216 104.991334,68.1869264 C104.991334,67.7343289 105.441941,67.2817313 105.441941,66.8291337 C105.892548,66.3765361 106.793761,64.5661459 107.244367,62.7557556 C108.596187,59.134975 108.596187,59.5875726 117.157712,50.9882187 C118.058925,49.630426 118.960139,48.2726333 118.960139,47.8200357 C118.960139,47.3674381 119.410745,46.462243 119.861352,46.0096454 C122.114385,44.1992551 123.916811,41.9362673 123.916811,41.4836697 C123.916811,41.4836697 122.564991,40.125877 121.213172,38.7680843 C119.861352,37.4102915 117.608319,34.6947061 116.256499,32.8843158 C114.904679,31.0739255 113.55286,29.2635352 112.651646,28.8109377 C111.750433,28.3583401 109.4974,27.453145 107.244367,27.0005474 C102.287695,25.6427547 101.837088,25.1901571 101.837088,24.7375595 C101.837088,23.8323644 103.639515,23.3797668 105.441941,24.284962 C106.343154,24.7375595 108.145581,25.1901571 109.4974,25.6427547 C110.84922,25.6427547 112.20104,26.0953522 112.651646,26.5479498 C114.003466,26.5479498 117.157712,30.1687304 118.509532,32.4317182 C118.960139,33.3369134 120.762565,35.1473037 122.564991,36.5050964 C126.169844,39.6732794 126.620451,40.5784745 125.719237,42.3888648 C125.268631,42.8414624 124.818024,44.1992551 124.818024,46.0096454 C124.818024,48.2726333 124.818024,48.7252308 122.564991,50.9882187 C121.213172,51.8934138 120.311958,53.2512066 120.311958,53.2512066 C120.311958,53.7038041 117.608319,56.8719871 115.355286,59.5875726 C114.003466,60.9453653 112.651646,62.7557556 112.20104,64.1135483 C109.4974,68.1869264 106.793761,72.2603046 106.343154,72.7129022 C105.892548,72.7129022 105.441941,73.1654997 104.991334,73.1654997 C104.090121,73.1654997 103.639515,74.0706949 103.188908,74.97589 C102.738302,76.7862803 99.5840555,79.0492682 96.8804159,79.5018657 C95.0779896,79.5018657 95.0779896,79.5018657 95.0779896,78.5966706 Z M143.743501,75.8810852 C141.490468,74.97589 141.039861,74.5232924 141.039861,74.0706949 C141.039861,73.6180973 141.941075,73.6180973 143.292894,73.6180973 C146.44714,74.0706949 148.249567,74.97589 148.249567,75.8810852 C147.79896,76.7862803 145.996534,76.7862803 143.743501,75.8810852 Z M191.507799,65.471341 C190.155979,64.1135483 188.804159,62.303158 188.804159,62.303158 C188.804159,61.8505604 188.353553,60.9453653 187.45234,60.0401701 C186.551127,58.6823774 186.551127,58.2297798 187.001733,57.3245847 C187.902946,55.966792 188.804159,55.966792 190.606586,57.7771823 C191.507799,59.134975 191.507799,59.5875726 191.507799,60.9453653 C191.057192,61.8505604 191.507799,62.7557556 192.859619,65.0187434 C193.310225,66.8291337 194.211438,68.1869264 194.211438,68.1869264 C194.211438,68.639524 193.310225,67.7343289 191.507799,65.471341 Z M155.459272,67.2817313 C154.107452,66.3765361 154.558059,65.0187434 155.459272,65.0187434 C156.811092,65.0187434 157.712305,65.9239386 157.712305,67.2817313 C157.712305,67.7343289 156.360485,67.7343289 155.459272,67.2817313 Z M75.2512998,65.471341 C74.8006932,65.0187434 73.8994801,64.5661459 73.8994801,64.5661459 C72.5476603,63.2083531 68.9428076,60.9453653 67.1403813,60.4927677 C63.9861352,60.0401701 64.4367418,59.134975 68.0415945,58.2297798 C70.2946274,57.7771823 70.745234,57.7771823 72.9982669,58.6823774 C74.3500867,59.134975 75.2512998,60.0401701 75.7019064,60.4927677 C76.152513,61.3979629 76.6031196,61.3979629 81.1091854,62.303158 C82.4610052,62.303158 82.9116118,62.7557556 82.9116118,63.2083531 C82.9116118,64.1135483 82.4610052,64.5661459 81.559792,64.5661459 C80.6585789,64.5661459 79.3067591,65.0187434 77.9549393,65.471341 C77.0537262,65.471341 75.7019064,65.471341 75.2512998,65.471341 Z M39.202773,58.6823774 C38.3015598,57.7771823 37.8509532,56.8719871 37.8509532,55.5141944 C37.4003466,54.1564017 36.94974,51.8934138 36.0485269,50.5356211 C35.5979203,49.1778284 34.2461005,46.0096454 33.7954939,44.1992551 C33.3448873,41.4836697 32.8942808,39.6732794 32.4436742,39.2206818 C31.542461,38.3154867 31.0918544,37.4102915 31.0918544,36.5050964 C31.0918544,35.1473037 30.6412478,33.3369134 30.6412478,31.9791207 C28.3882149,25.6427547 31.542461,17.9485959 37.4003466,15.2330105 C41.0051993,13.4226202 46.8630849,12.9700227 47.7642981,13.8752178 C48.2149047,14.7804129 46.4124783,15.6856081 41.9064125,15.6856081 C38.3015598,16.1382057 37.4003466,16.5908032 36.0485269,17.4959984 C33.7954939,19.3063887 32.4436742,22.4745717 32.8942808,27.9057425 C32.8942808,31.9791207 32.8942808,32.4317182 33.7954939,33.789511 C34.6967071,34.6947061 35.1473137,36.0524988 35.5979203,36.957694 C35.5979203,37.8628891 36.4991334,39.6732794 37.4003466,41.0310721 C39.6533795,45.1044503 40.1039861,46.9148405 40.1039861,50.0830236 C40.1039861,51.8934138 40.1039861,53.2512066 40.5545927,53.2512066 C41.0051993,53.2512066 44.1594454,48.7252308 44.610052,46.9148405 C45.0606586,46.0096454 45.0606586,44.6518527 45.0606586,43.29406 C45.0606586,42.3888648 45.5112652,40.125877 46.4124783,38.7680843 C47.3136915,35.1473037 47.3136915,34.2421085 45.9618718,33.3369134 C45.5112652,32.8843158 45.0606586,32.4317182 45.0606586,31.0739255 C45.0606586,29.7161328 44.610052,29.2635352 44.610052,28.8109377 C43.2582322,28.8109377 43.7088388,27.0005474 44.610052,26.5479498 C45.0606586,26.0953522 45.5112652,25.6427547 45.5112652,24.7375595 C45.5112652,23.8323644 45.9618718,23.8323644 48.2149047,23.8323644 C50.9185442,23.8323644 50.9185442,23.8323644 50.9185442,22.9271692 C50.9185442,21.5693765 49.1161179,19.7589862 46.8630849,18.8537911 C45.9618718,18.4011935 45.5112652,17.9485959 45.5112652,17.9485959 C46.4124783,16.1382057 51.3691508,18.4011935 52.7209705,21.5693765 C53.1715771,22.4745717 53.6221837,23.8323644 53.6221837,24.284962 C53.6221837,25.6427547 54.9740035,27.0005474 56.7764298,27.0005474 C57.677643,27.0005474 58.1282496,27.0005474 58.5788562,28.3583401 C58.5788562,28.8109377 59.0294627,30.1687304 59.0294627,31.5265231 C59.9306759,34.2421085 59.0294627,35.5999013 56.3258232,36.0524988 C54.9740035,36.0524988 54.5233969,36.0524988 54.0727903,35.1473037 C52.7209705,33.789511 50.9185442,33.789511 50.4679376,35.1473037 C50.017331,35.5999013 49.5667244,37.8628891 49.5667244,39.6732794 C49.1161179,41.9362673 47.7642981,44.6518527 47.3136915,46.462243 C44.610052,51.8934138 43.7088388,54.1564017 43.2582322,56.4193896 C42.8076256,57.3245847 42.3570191,58.6823774 42.3570191,59.134975 C41.4558059,60.0401701 40.1039861,59.5875726 39.202773,58.6823774 Z M51.8197574,27.453145 C51.8197574,27.453145 51.8197574,27.0005474 51.3691508,27.453145 C50.9185442,27.453145 50.9185442,27.9057425 51.3691508,27.9057425 C51.3691508,28.3583401 51.8197574,28.3583401 51.8197574,27.453145 Z M53.6221837,53.7038041 C53.1715771,53.2512066 53.1715771,53.2512066 54.0727903,52.3460114 C54.5233969,51.8934138 54.5233969,51.8934138 53.6221837,50.9882187 C52.7209705,50.5356211 52.7209705,50.0830236 53.1715771,49.630426 C53.1715771,48.7252308 53.1715771,47.8200357 53.1715771,46.0096454 C52.270364,42.3888648 52.7209705,39.2206818 53.6221837,38.7680843 C54.9740035,38.7680843 56.3258232,41.4836697 56.3258232,44.6518527 C56.3258232,46.462243 55.8752166,47.8200357 55.8752166,48.2726333 C55.4246101,48.7252308 55.4246101,49.1778284 55.8752166,49.630426 C56.7764298,51.4408163 57.2270364,53.7038041 56.7764298,54.1564017 C56.7764298,55.0615968 54.0727903,54.6089993 53.6221837,53.7038041 Z M185.199307,50.9882187 C184.298094,50.0830236 182.495667,48.7252308 181.594454,47.8200357 C179.792028,46.462243 179.792028,46.0096454 180.242634,45.5570478 C181.143847,44.6518527 180.242634,43.7466575 178.440208,42.3888648 C177.538995,41.9362673 176.637782,41.0310721 176.187175,40.5784745 C175.736568,40.5784745 174.384749,39.6732794 173.483536,38.7680843 C172.131716,38.3154867 171.230503,37.8628891 171.230503,37.4102915 C171.230503,36.5050964 172.131716,36.5050964 173.934142,37.4102915 C176.187175,38.3154867 176.637782,38.3154867 176.187175,37.8628891 C176.187175,37.4102915 175.736568,36.957694 175.285962,36.957694 C173.934142,36.957694 172.582322,35.1473037 173.483536,34.6947061 C174.835355,33.3369134 178.440208,36.5050964 178.890815,39.2206818 C179.341421,40.125877 179.792028,41.0310721 180.693241,41.9362673 C182.045061,42.8414624 182.495667,44.1992551 181.594454,44.6518527 C180.693241,45.1044503 181.594454,46.462243 182.946274,46.9148405 C184.7487,47.8200357 187.902946,50.5356211 187.902946,51.4408163 C187.902946,52.798609 187.45234,52.3460114 185.199307,50.9882187 Z M166.27383,32.8843158 C162.668977,31.9791207 162.218371,31.5265231 163.119584,30.621328 C164.020797,29.2635352 165.823224,29.7161328 168.076256,30.621328 C169.428076,31.5265231 169.878683,31.9791207 169.878683,32.4317182 C169.428076,33.789511 168.97747,33.789511 166.27383,32.8843158 Z M57.677643,23.8323644 C56.7764298,22.9271692 56.7764298,22.0219741 57.2270364,21.5693765 C58.1282496,21.5693765 59.4800693,22.9271692 59.4800693,23.8323644 C59.4800693,25.1901571 58.5788562,25.1901571 57.677643,23.8323644 Z M50.4679376,13.8752178 C49.5667244,13.8752178 49.5667244,13.4226202 49.5667244,12.9700227 C49.5667244,12.0648275 50.017331,12.0648275 53.1715771,12.0648275 C56.3258232,12.0648275 57.2270364,12.0648275 59.0294627,10.7070348 C60.3812825,10.2544372 62.1837088,8.89664451 63.084922,8.44404693 C63.9861352,7.08625422 64.8873484,7.08625422 65.7885615,7.08625422 C67.5909879,7.08625422 71.1958406,5.27586393 71.6464471,4.37066879 C72.0970537,3.91807121 72.9982669,3.01287607 73.4488735,2.5602785 C74.3500867,1.65508335 74.8006932,1.20248578 76.152513,1.65508335 C77.5043328,1.65508335 78.4055459,1.65508335 79.7573657,0.74988821 C81.1091854,-0.155306934 82.0103986,-0.155306934 83.3622184,0.297290638 C84.7140381,0.74988821 85.6152513,0.74988821 86.5164645,1.20248578 C86.9670711,1.20248578 88.3188908,0.74988821 90.1213172,0.74988821 C91.9237435,-0.155306934 93.7261698,-0.155306934 99.5840555,0.297290638 C107.694974,0.297290638 109.046794,0.74988821 109.4974,1.65508335 C109.4974,2.5602785 108.596187,2.5602785 103.188908,2.10768093 C94.1767764,2.10768093 93.2755633,2.10768093 91.4731369,2.5602785 C90.1213172,3.01287607 87.8682842,3.01287607 85.6152513,3.01287607 C82.0103986,3.46547364 80.6585789,3.46547364 76.6031196,5.27586393 C75.7019064,5.7284615 74.3500867,6.18105907 73.8994801,6.18105907 C73.4488735,6.18105907 72.9982669,6.18105907 72.5476603,6.63365665 C72.5476603,6.63365665 69.8440208,7.99144936 67.1403813,9.80183965 C64.4367418,11.1596324 61.7331023,12.5174251 61.2824957,12.9700227 C60.3812825,13.8752178 59.9306759,13.8752178 55.8752166,13.8752178 C53.6221837,13.8752178 50.9185442,13.8752178 50.4679376,13.8752178 Z M127.521664,8.44404693 C127.521664,7.99144936 129.774697,7.08625422 131.126516,7.08625422 C132.928943,6.63365665 133.379549,7.99144936 132.02773,8.44404693 C130.225303,8.89664451 127.521664,8.89664451 127.521664,8.44404693 Z M121.663778,6.63365665 C115.805893,5.27586393 116.256499,3.91807121 122.564991,4.37066879 L126.620451,4.37066879 L127.97227,3.01287607 C129.32409,1.65508335 129.774697,1.65508335 129.774697,2.10768093 C130.225303,3.46547364 129.774697,4.82326636 127.521664,5.7284615 C125.719237,7.08625422 125.268631,7.08625422 121.663778,6.63365665 Z M113.55286,2.10768093 C112.651646,0.74988821 113.55286,0.297290638 115.355286,0.74988821 C116.707106,0.74988821 117.608319,1.20248578 117.608319,1.65508335 C117.608319,2.5602785 117.157712,2.5602785 116.256499,2.5602785 C115.355286,2.5602785 114.454073,2.10768093 113.55286,2.10768093 Z" id="Shape"></path>
        </g>
        <g id="Group" transform="translate(344.000000, 79.000000)" fill="#18181B" fill-rule="nonzero">
            <g id="Watchdog" transform="translate(2.793000, 7.920000)">
                <polygon id="Path" points="23.142 101.08 43.89 101.08 61.313 35.378 78.47 101.08 100.415 101.08 123.557 5.985 103.607 5.985 88.179 72.086 71.288 5.985 52.934 5.985 36.708 71.687 21.812 5.985 0 5.985"></polygon>
                <path d="M150.068333,102.543 C160.974333,102.543 167.092333,98.287 171.082333,92.701 L171.082333,101.08 L189.835333,101.08 L189.835333,55.727 C189.835333,36.841 177.732333,29.925 160.708333,29.925 C143.684333,29.925 130.650333,37.24 129.453333,53.732 L147.674333,53.732 C148.472333,47.747 151.930333,43.89 159.511333,43.89 C168.289333,43.89 170.816333,48.412 170.816333,56.658 L170.816333,59.451 L162.969333,59.451 C141.689333,59.451 126.793333,65.569 126.793333,81.795 C126.793333,96.425 137.433333,102.543 150.068333,102.543 Z M155.787333,89.11 C148.738333,89.11 145.679333,85.785 145.679333,80.731 C145.679333,73.283 152.196333,70.889 163.368333,70.889 L170.816333,70.889 L170.816333,76.741 C170.816333,84.455 164.299333,89.11 155.787333,89.11 Z" id="Shape"></path>
                <path d="M233.503667,102.41 C238.690667,102.41 242.547667,101.479 245.207667,100.548 L245.207667,85.652 C242.946667,86.583 240.818667,86.982 237.892667,86.982 C232.971667,86.982 230.178667,84.322 230.178667,78.736 L230.178667,45.22 L244.808667,45.22 L244.808667,31.521 L230.178667,31.521 L230.178667,16.492 L211.026667,16.492 L211.026667,31.521 L202.115667,31.521 L202.115667,45.22 L211.026667,45.22 L211.026667,80.465 C211.026667,94.962 218.873667,102.41 233.503667,102.41 Z" id="Path"></path>
                <path d="M291.536,102.543 C311.752,102.543 323.722,91.105 324.786,74.613 L307.363,74.613 C306.432,83.524 300.181,88.046 292.467,88.046 C281.694,88.046 275.443,80.864 275.443,66.899 L275.443,65.835 C275.443,52.535 282.093,45.087 292.068,45.087 C299.915,45.087 304.836,48.811 306.166,56.924 L324.387,56.924 C322.658,36.974 307.762,29.925 291.669,29.925 C271.852,29.925 255.759,43.624 255.759,66.101 L255.759,67.165 C255.759,89.908 271.187,102.543 291.536,102.543 Z" id="Path"></path>
                <path d="M338.662333,101.08 L357.947333,101.08 L357.947333,60.914 C357.947333,50.673 364.198333,45.619 372.444333,45.619 C380.956333,45.619 384.680333,50.141 384.680333,59.584 L384.680333,101.08 L403.965333,101.08 L403.965333,56.791 C403.965333,38.171 394.256333,29.925 380.557333,29.925 C368.986333,29.925 361.405333,35.644 357.947333,42.56 L357.947333,0 L338.662333,0 L338.662333,101.08 Z" id="Path"></path>
                <path d="M448.298667,102.543 C458.539667,102.543 467.051667,96.558 470.642667,89.509 L470.642667,101.08 L489.794667,101.08 L489.794667,0 L470.642667,0 L470.642667,41.895 C466.785667,34.846 459.869667,29.925 448.697667,29.925 C431.274667,29.925 418.107667,43.358 418.107667,66.234 L418.107667,67.298 C418.107667,90.44 431.407667,102.543 448.298667,102.543 Z M454.017667,87.514 C444.441667,87.514 437.791667,80.731 437.791667,66.899 L437.791667,65.835 C437.791667,52.003 443.776667,44.688 454.549667,44.688 C465.056667,44.688 471.174667,51.737 471.174667,65.569 L471.174667,66.633 C471.174667,80.731 464.125667,87.514 454.017667,87.514 Z" id="Shape"></path>
                <path d="M541.177,87.913 C530.271,87.913 524.153,79.933 524.153,66.633 L524.153,65.569 C524.153,52.269 530.537,44.555 541.177,44.555 C551.95,44.555 558.201,52.535 558.201,65.835 L558.201,66.766 C558.201,79.933 551.95,87.913 541.177,87.913 Z M541.044,102.543 C561.925,102.543 577.752,88.578 577.752,66.633 L577.752,65.569 C577.752,43.89 562.058,29.925 541.177,29.925 C520.296,29.925 504.469,44.156 504.469,65.968 L504.469,67.032 C504.469,88.711 520.296,102.543 541.044,102.543 Z" id="Shape"></path>
                <path d="M623.282333,126.749 C646.158333,126.749 659.857333,116.242 659.990333,95.627 L659.990333,31.521 L640.838333,31.521 L640.838333,41.895 C636.848333,34.846 630.065333,29.925 618.760333,29.925 C601.470333,29.925 588.170333,43.89 588.170333,63.84 L588.170333,64.771 C588.170333,85.386 601.603333,98.021 618.494333,98.021 C628.735333,98.021 636.981333,91.903 640.838333,85.12 L640.838333,95.627 C640.838333,106.533 634.986333,112.651 623.282333,112.651 C613.440333,112.651 609.051333,108.661 607.854333,102.543 L588.702333,102.543 C590.564333,116.907 600.805333,126.749 623.282333,126.749 Z M624.213333,83.524 C614.637333,83.524 607.854333,76.342 607.854333,64.771 L607.854333,63.707 C607.854333,52.269 613.839333,44.555 624.612333,44.555 C635.119333,44.555 641.370333,51.737 641.370333,63.574 L641.370333,64.505 C641.370333,76.342 634.321333,83.524 624.213333,83.524 Z" id="Shape"></path>
            </g>
            <g id="Selfhosted-website" transform="translate(22.016000, 146.408000)">
                <path d="M11.466,32.97 C17.43,32.97 21.84,29.148 21.84,24.108 C21.84,18.438 18.312,16.422 11.634,15.372 C5.502,14.448 4.41,12.936 4.41,9.996 C4.41,7.182 6.552,5.124 10.668,5.124 C14.826,5.124 17.01,6.678 17.724,10.458 L21,10.458 C20.412,5.124 16.674,2.184 10.668,2.184 C4.998,2.184 1.008,5.712 1.008,10.332 C1.008,15.666 4.746,17.64 11.046,18.606 C16.758,19.53 18.312,20.958 18.312,24.36 C18.312,27.762 15.33,30.03 11.466,30.03 C5.418,30.03 3.99,27.006 3.528,23.436 L-1.13686838e-13,23.436 C0.546,28.56 3.444,32.97 11.466,32.97 Z" id="Path"></path>
                <path d="M37.394,32.97 C42.35,32.97 46.004,30.66 46.76,26.25 L43.274,26.25 C42.812,28.812 40.838,30.072 37.436,30.072 C32.942,30.072 30.548,27.3 30.38,22.302 L46.928,22.302 L46.928,21.168 C46.928,13.314 42.14,10.248 37.058,10.248 C31.01,10.248 26.768,14.868 26.768,21.504 L26.768,21.84 C26.768,28.602 31.178,32.97 37.394,32.97 Z M30.506,19.488 C31.094,15.582 33.488,13.146 37.058,13.146 C40.67,13.146 43.022,14.952 43.358,19.488 L30.506,19.488 Z" id="Shape"></path>
                <polygon id="Path" points="52.906 32.592 56.434 32.592 56.434 0.126 52.906 0.126"></polygon>
                <path d="M64.89,32.592 L68.376,32.592 L68.376,13.566 L73.752,13.566 L73.752,10.626 L68.376,10.626 L68.376,6.678 C68.376,4.452 69.3,2.898 71.568,2.898 C72.534,2.898 73.416,3.108 74.046,3.36 L74.046,0.42 C73.164,0.126 72.576,0 71.442,0 C67.074,0 64.89,2.604 64.89,7.056 L64.89,10.626 L61.74,10.626 L61.74,13.566 L64.89,13.566 L64.89,32.592 Z" id="Path"></path>
                <polygon id="Path" points="76.958 22.47 95.27 22.47 95.27 19.53 76.958 19.53"></polygon>
                <path d="M101.248,32.592 L104.734,32.592 L104.734,19.278 C104.734,15.33 107.632,13.272 110.866,13.272 C114.394,13.272 116.032,14.994 116.032,18.858 L116.032,32.592 L119.518,32.592 L119.518,19.11 C119.518,12.726 116.326,10.248 111.79,10.248 C108.178,10.248 105.742,12.054 104.734,14.112 L104.734,0.126 L101.248,0.126 L101.248,32.592 Z" id="Path"></path>
                <path d="M136.08,30.072 C131.628,30.072 128.898,26.796 128.898,21.798 L128.898,21.462 C128.898,16.422 131.67,13.146 136.08,13.146 C140.448,13.146 143.262,16.422 143.262,21.504 L143.262,21.798 C143.262,26.754 140.49,30.072 136.08,30.072 Z M136.038,32.97 C142.296,32.97 146.874,28.392 146.874,21.756 L146.874,21.42 C146.874,14.826 142.296,10.248 136.08,10.248 C129.864,10.248 125.286,14.868 125.286,21.462 L125.286,21.798 C125.286,28.224 129.78,32.97 136.038,32.97 Z" id="Shape"></path>
                <path d="M159.656,32.97 C164.99,32.97 167.72,30.282 167.72,26.292 C167.72,21.63 164.528,20.622 159.992,19.782 C155.96,19.068 154.868,18.27 154.868,16.296 C154.868,14.406 156.506,13.146 159.026,13.146 C161.798,13.146 163.142,14.196 163.646,16.59 L167.006,16.59 C166.418,11.844 163.016,10.248 159.068,10.248 C155.624,10.248 151.634,12.348 151.634,16.422 C151.634,20.244 153.566,21.84 159.278,22.89 C162.68,23.52 164.402,24.276 164.402,26.586 C164.402,28.938 162.932,30.072 159.614,30.072 C156.086,30.072 154.7,28.434 154.448,25.83 L151.046,25.83 C151.256,30.324 154.406,32.97 159.656,32.97 Z" id="Path"></path>
                <path d="M180.25,32.886 C181.678,32.886 182.518,32.676 183.232,32.424 L183.232,29.484 C182.476,29.778 181.636,29.946 180.544,29.946 C178.78,29.946 177.814,28.896 177.814,26.754 L177.814,13.566 L182.938,13.566 L182.938,10.626 L177.814,10.626 L177.814,5.628 L174.328,5.628 L174.328,10.626 L171.178,10.626 L171.178,13.566 L174.328,13.566 L174.328,27.09 C174.328,30.534 176.26,32.886 180.25,32.886 Z" id="Path"></path>
                <path d="M198.03,32.97 C202.986,32.97 206.64,30.66 207.396,26.25 L203.91,26.25 C203.448,28.812 201.474,30.072 198.072,30.072 C193.578,30.072 191.184,27.3 191.016,22.302 L207.564,22.302 L207.564,21.168 C207.564,13.314 202.776,10.248 197.694,10.248 C191.646,10.248 187.404,14.868 187.404,21.504 L187.404,21.84 C187.404,28.602 191.814,32.97 198.03,32.97 Z M191.142,19.488 C191.73,15.582 194.124,13.146 197.694,13.146 C201.306,13.146 203.658,14.952 203.994,19.488 L191.142,19.488 Z" id="Shape"></path>
                <path d="M221.732,32.97 C224.924,32.97 227.99,30.954 229.25,28.812 L229.25,32.592 L232.736,32.592 L232.736,0.126 L229.25,0.126 L229.25,14.154 C227.99,12.012 225.722,10.248 222.068,10.248 C216.02,10.248 211.82,14.994 211.82,21.714 L211.82,22.05 C211.82,28.896 215.978,32.97 221.732,32.97 Z M222.11,30.072 C218.414,30.072 215.432,27.426 215.432,21.882 L215.432,21.546 C215.432,16.212 218.036,13.146 222.404,13.146 C226.688,13.146 229.376,15.792 229.376,21.42 L229.376,21.756 C229.376,27.384 226.184,30.072 222.11,30.072 Z" id="Shape"></path>
                <polygon id="Path" points="256.452 32.592 260.274 32.592 265.398 16.128 269.976 32.592 273.84 32.592 280.686 10.626 277.116 10.626 271.95 28.308 266.952 10.626 263.928 10.626 258.594 28.308 253.47 10.626 249.69 10.626"></polygon>
                <path d="M294.518,32.97 C299.474,32.97 303.128,30.66 303.884,26.25 L300.398,26.25 C299.936,28.812 297.962,30.072 294.56,30.072 C290.066,30.072 287.672,27.3 287.504,22.302 L304.052,22.302 L304.052,21.168 C304.052,13.314 299.264,10.248 294.182,10.248 C288.134,10.248 283.892,14.868 283.892,21.504 L283.892,21.84 C283.892,28.602 288.302,32.97 294.518,32.97 Z M287.63,19.488 C288.218,15.582 290.612,13.146 294.182,13.146 C297.794,13.146 300.146,14.952 300.482,19.488 L287.63,19.488 Z" id="Shape"></path>
                <path d="M320.866,32.97 C326.914,32.97 330.862,28.35 330.862,21.63 L330.862,21.294 C330.862,14.448 326.62,10.248 320.866,10.248 C317.674,10.248 314.692,12.18 313.432,14.322 L313.432,0.126 L309.946,0.126 L309.946,32.592 L313.432,32.592 L313.432,28.98 C314.692,31.164 317.296,32.97 320.866,32.97 Z M320.53,30.072 C316.246,30.072 313.306,27.426 313.306,21.798 L313.306,21.462 C313.306,15.834 316.414,13.146 320.488,13.146 C324.184,13.146 327.25,15.918 327.25,21.462 L327.25,21.798 C327.25,27.132 324.898,30.072 320.53,30.072 Z" id="Shape"></path>
                <path d="M343.644,32.97 C348.978,32.97 351.708,30.282 351.708,26.292 C351.708,21.63 348.516,20.622 343.98,19.782 C339.948,19.068 338.856,18.27 338.856,16.296 C338.856,14.406 340.494,13.146 343.014,13.146 C345.786,13.146 347.13,14.196 347.634,16.59 L350.994,16.59 C350.406,11.844 347.004,10.248 343.056,10.248 C339.612,10.248 335.622,12.348 335.622,16.422 C335.622,20.244 337.554,21.84 343.266,22.89 C346.668,23.52 348.39,24.276 348.39,26.586 C348.39,28.938 346.92,30.072 343.602,30.072 C340.074,30.072 338.688,28.434 338.436,25.83 L335.034,25.83 C335.244,30.324 338.394,32.97 343.644,32.97 Z" id="Path"></path>
                <path d="M357.644,32.592 L361.13,32.592 L361.13,10.626 L357.644,10.626 L357.644,32.592 Z M359.324,6.048 C360.584,6.048 361.634,4.998 361.634,3.738 C361.634,2.478 360.584,1.428 359.324,1.428 C358.064,1.428 357.014,2.478 357.014,3.738 C357.014,4.998 358.064,6.048 359.324,6.048 Z" id="Shape"></path>
                <path d="M375.508,32.886 C376.936,32.886 377.776,32.676 378.49,32.424 L378.49,29.484 C377.734,29.778 376.894,29.946 375.802,29.946 C374.038,29.946 373.072,28.896 373.072,26.754 L373.072,13.566 L378.196,13.566 L378.196,10.626 L373.072,10.626 L373.072,5.628 L369.586,5.628 L369.586,10.626 L366.436,10.626 L366.436,13.566 L369.586,13.566 L369.586,27.09 C369.586,30.534 371.518,32.886 375.508,32.886 Z" id="Path"></path>
                <path d="M393.288,32.97 C398.244,32.97 401.898,30.66 402.654,26.25 L399.168,26.25 C398.706,28.812 396.732,30.072 393.33,30.072 C388.836,30.072 386.442,27.3 386.274,22.302 L402.822,22.302 L402.822,21.168 C402.822,13.314 398.034,10.248 392.952,10.248 C386.904,10.248 382.662,14.868 382.662,21.504 L382.662,21.84 C382.662,28.602 387.072,32.97 393.288,32.97 Z M386.4,19.488 C386.988,15.582 389.382,13.146 392.952,13.146 C396.564,13.146 398.916,14.952 399.252,19.488 L386.4,19.488 Z" id="Shape"></path>
                <path d="M420.406,32.592 L423.892,32.592 L423.892,19.152 C423.892,15.204 426.832,13.272 429.688,13.272 C432.712,13.272 434.35,14.868 434.35,18.732 L434.35,32.592 L437.836,32.592 L437.836,19.152 C437.836,15.204 440.776,13.272 443.632,13.272 C446.656,13.272 448.294,14.868 448.294,18.732 L448.294,32.592 L451.78,32.592 L451.78,18.984 C451.78,12.6 448.336,10.248 444.388,10.248 C441.658,10.248 438.382,11.508 436.87,14.364 C435.736,11.424 433.258,10.248 430.444,10.248 C427.294,10.248 424.9,11.928 423.892,13.986 L423.892,10.626 L420.406,10.626 L420.406,32.592 Z" id="Path"></path>
                <path d="M468.342,30.072 C463.89,30.072 461.16,26.796 461.16,21.798 L461.16,21.462 C461.16,16.422 463.932,13.146 468.342,13.146 C472.71,13.146 475.524,16.422 475.524,21.504 L475.524,21.798 C475.524,26.754 472.752,30.072 468.342,30.072 Z M468.3,32.97 C474.558,32.97 479.136,28.392 479.136,21.756 L479.136,21.42 C479.136,14.826 474.558,10.248 468.342,10.248 C462.126,10.248 457.548,14.868 457.548,21.462 L457.548,21.798 C457.548,28.224 462.042,32.97 468.3,32.97 Z" id="Shape"></path>
                <path d="M485.114,32.592 L488.6,32.592 L488.6,19.278 C488.6,15.33 491.498,13.272 494.732,13.272 C498.26,13.272 499.898,14.994 499.898,18.858 L499.898,32.592 L503.384,32.592 L503.384,19.11 C503.384,12.726 500.192,10.248 495.656,10.248 C492.044,10.248 489.608,12.054 488.6,14.112 L488.6,10.626 L485.114,10.626 L485.114,32.592 Z" id="Path"></path>
                <path d="M510.874,32.592 L514.36,32.592 L514.36,10.626 L510.874,10.626 L510.874,32.592 Z M512.554,6.048 C513.814,6.048 514.864,4.998 514.864,3.738 C514.864,2.478 513.814,1.428 512.554,1.428 C511.294,1.428 510.244,2.478 510.244,3.738 C510.244,4.998 511.294,6.048 512.554,6.048 Z" id="Shape"></path>
                <path d="M528.738,32.886 C530.166,32.886 531.006,32.676 531.72,32.424 L531.72,29.484 C530.964,29.778 530.124,29.946 529.032,29.946 C527.268,29.946 526.302,28.896 526.302,26.754 L526.302,13.566 L531.426,13.566 L531.426,10.626 L526.302,10.626 L526.302,5.628 L522.816,5.628 L522.816,10.626 L519.666,10.626 L519.666,13.566 L522.816,13.566 L522.816,27.09 C522.816,30.534 524.748,32.886 528.738,32.886 Z" id="Path"></path>
                <path d="M546.686,30.072 C542.234,30.072 539.504,26.796 539.504,21.798 L539.504,21.462 C539.504,16.422 542.276,13.146 546.686,13.146 C551.054,13.146 553.868,16.422 553.868,21.504 L553.868,21.798 C553.868,26.754 551.096,30.072 546.686,30.072 Z M546.644,32.97 C552.902,32.97 557.48,28.392 557.48,21.756 L557.48,21.42 C557.48,14.826 552.902,10.248 546.686,10.248 C540.47,10.248 535.892,14.868 535.892,21.462 L535.892,21.798 C535.892,28.224 540.386,32.97 546.644,32.97 Z" id="Shape"></path>
                <path d="M563.458,32.592 L566.944,32.592 L566.944,20.538 C566.944,15.12 569.758,13.734 574.168,13.524 L574.168,10.248 C570.22,10.374 568.33,12.096 566.944,14.574 L566.944,10.626 L563.458,10.626 L563.458,32.592 Z" id="Path"></path>
                <path d="M579.894,32.592 L583.38,32.592 L583.38,10.626 L579.894,10.626 L579.894,32.592 Z M581.574,6.048 C582.834,6.048 583.884,4.998 583.884,3.738 C583.884,2.478 582.834,1.428 581.574,1.428 C580.314,1.428 579.264,2.478 579.264,3.738 C579.264,4.998 580.314,6.048 581.574,6.048 Z" id="Shape"></path>
                <path d="M591.08,32.592 L594.566,32.592 L594.566,19.278 C594.566,15.33 597.464,13.272 600.698,13.272 C604.226,13.272 605.864,14.994 605.864,18.858 L605.864,32.592 L609.35,32.592 L609.35,19.11 C609.35,12.726 606.158,10.248 601.622,10.248 C598.01,10.248 595.574,12.054 594.566,14.112 L594.566,10.626 L591.08,10.626 L591.08,32.592 Z" id="Path"></path>
                <path d="M625.534,40.614 C631.666,40.614 635.992,37.506 636.034,31.122 L636.034,10.626 L632.548,10.626 L632.548,14.154 C631.288,12.012 629.02,10.248 625.366,10.248 C619.318,10.248 615.118,15.204 615.118,21.168 L615.118,21.462 C615.118,27.51 619.36,31.878 625.114,31.878 C628.306,31.878 631.288,29.862 632.548,27.72 L632.548,30.912 C632.548,35.616 629.818,37.674 625.492,37.674 C621.754,37.674 619.654,36.372 619.15,33.852 L615.58,33.852 C616.168,37.548 619.024,40.614 625.534,40.614 Z M625.492,28.98 C621.796,28.98 618.73,26.124 618.73,21.336 L618.73,21 C618.73,16.38 621.334,13.146 625.702,13.146 C629.986,13.146 632.674,16.002 632.674,20.916 L632.674,21.21 C632.674,26.124 629.566,28.98 625.492,28.98 Z" id="Shape"></path>
            </g>
        </g>
    </g>
</svg>